<svg width="600" height="400" viewBox="0 0 600 400" xmlns="http://www.w3.org/2000/svg"><mask id="satori_om-id"><rect x="0" y="0" width="230" height="204" fill="#fff"/></mask><defs><clipPath id="satori_bc-id-0"><path x="0" y="0" width="102" height="102" d="M9,0 h84 a9,9 0 0 1 9,9 v84 a9,9 0 0 1 -9,9 h-84 a9,9 0 0 1 -9,-9 v-84 a9,9 0 0 1 9,-9"/></clipPath></defs><mask id="satori_om-id-0"><rect x="2" y="2" width="98" height="98" fill="#fff"/><path width="102" height="102" fill="none" stroke="#000" stroke-width="4" d="M2.636,2.636 A9,9 0 0 1 9,0 h84 a9,9 0 0 1 9,9 v84 a9,9 0 0 1 -9,9 h-84 a9,9 0 0 1 -9,-9 v-84 A9,9 0 0 1 2.636,2.636"/></mask><path x="0" y="0" width="102" height="102" fill="#CCCCCC" d="M9,0 h84 a9,9 0 0 1 9,9 v84 a9,9 0 0 1 -9,9 h-84 a9,9 0 0 1 -9,-9 v-84 a9,9 0 0 1 9,-9"/><path width="102" height="102" clip-path="url(#satori_bc-id-0)" fill="none" stroke="black" stroke-width="4" d="M2.636,2.636 A9,9 0 0 1 9,0 h84 a9,9 0 0 1 9,9 v84 a9,9 0 0 1 -9,9 h-84 a9,9 0 0 1 -9,-9 v-84 A9,9 0 0 1 2.636,2.636"/><mask id="satori_ms-id-0-0-1" maskUnits="userSpaceOnUse"><rect x="0" y="0" width="600" height="400" fill="#fff"/><path x="12" y="7" width="78" height="78" fill="#000"  stroke-width="2" d="M18,7 h66 a6,6 0 0 1 6,6 v66 a6,6 0 0 1 -6,6 h-66 a6,6 0 0 1 -6,-6 v-66 a6,6 0 0 1 6,-6"/></mask><defs><filter id="satori_s-id-0-0-1" x="-1.6025641025641024%" y="-1.6025641025641024%" width="103.20512820512822%" height="103.20512820512822%"><feGaussianBlur stdDeviation="0.5" result="b"/><feFlood flood-color="rgb(0, 0, 0, 0.05)" in="SourceGraphic" result="f"/><feComposite in="f" in2="b" operator="in"/></filter></defs><g mask="url(#satori_ms-id-0-0-1)" filter="url(#satori_s-id-0-0-1)" opacity="1"><path x="11" y="6" width="78" height="78" fill="#fff" stroke="#fff" stroke-width="2" d="M17,6 h66 a6,6 0 0 1 6,6 v66 a6,6 0 0 1 -6,6 h-66 a6,6 0 0 1 -6,-6 v-66 a6,6 0 0 1 6,-6"/></g><mask id="satori_ms-id-0-0-0" maskUnits="userSpaceOnUse"><rect x="0" y="0" width="600" height="400" fill="#fff"/><path x="12" y="7" width="78" height="78" fill="#000"  stroke-width="2" d="M18,7 h66 a6,6 0 0 1 6,6 v66 a6,6 0 0 1 -6,6 h-66 a6,6 0 0 1 -6,-6 v-66 a6,6 0 0 1 6,-6"/></mask><defs><filter id="satori_s-id-0-0-0" x="-1.6025641025641024%" y="-1.6025641025641024%" width="103.20512820512822%" height="103.20512820512822%"><feGaussianBlur stdDeviation="0.5" result="b"/><feFlood flood-color="rgb(0, 0, 0, 0.05)" in="SourceGraphic" result="f"/><feComposite in="f" in2="b" operator="in"/></filter></defs><g mask="url(#satori_ms-id-0-0-0)" filter="url(#satori_s-id-0-0-0)" opacity="1"><path x="13" y="8" width="78" height="78" fill="#fff" stroke="#fff" stroke-width="2" d="M19,8 h66 a6,6 0 0 1 6,6 v66 a6,6 0 0 1 -6,6 h-66 a6,6 0 0 1 -6,-6 v-66 a6,6 0 0 1 6,-6"/></g><mask id="satori_om-id-0-0"><rect x="12" y="7" width="78" height="78" fill="#fff"/></mask><path x="12" y="7" width="78" height="78" fill="#FCFCFC" d="M18,7 h66 a6,6 0 0 1 6,6 v66 a6,6 0 0 1 -6,6 h-66 a6,6 0 0 1 -6,-6 v-66 a6,6 0 0 1 6,-6"/><mask id="satori_om-id-0-0-0"><rect x="46" y="36" width="10" height="20" fill="#fff"/></mask><path fill="black" d="M55.4 50.7L52.3 41.6C52.2 41.1 51.5 40.7 50.8 40.7C50.1 40.7 49.4 41.1 49.3 41.6L46.2 50.7C46.1 50.8 46.1 51.0 46.1 51.1C46.1 51.6 46.5 52.1 47.1 52.1C47.5 52.1 47.9 51.8 48 51.3L48.8 48.8C48.9 48.6 49.0 48.5 49.3 48.5L52.3 48.5C52.6 48.5 52.7 48.6 52.8 48.8L53.6 51.3C53.7 51.8 54.1 52.1 54.5 52.1C55.1 52.1 55.5 51.6 55.5 51.1C55.5 51.0 55.5 50.8 55.4 50.7ZM51.7 46.8L49.9 46.8C49.6 46.8 49.5 46.6 49.6 46.4L50.4 43.7C50.5 43.5 50.6 43.4 50.8 43.4C51.0 43.4 51.1 43.5 51.2 43.7L52.0 46.4C52.1 46.6 52.0 46.8 51.7 46.8Z "/><mask id="satori_om-id-0-0-1"><rect x="14" y="69" width="15" height="14" fill="#fff"/></mask><path fill="#666666" d="M17.4 80.1C17.4 80.6 17.8 81 18.2 81C18.7 81 19.1 80.6 19.1 80.1L19.1 73.2C19.1 72.7 18.9 72.4 18.4 72.4C17.9 72.4 17.8 72.9 17.4 73.2C17.1 73.5 16.7 73.7 16.3 73.9C16.0 74.1 15.8 74.3 15.8 74.6C15.8 74.9 16.1 75.2 16.3 75.2C16.5 75.3 16.8 75.2 17.1 75.2C17.4 75.2 17.4 75.5 17.4 75.7ZM26.5 74.6C26.0 74.6 25.7 75 25.7 75.5L25.7 78.7C25.7 79.2 25.2 79.5 24.7 79.5C24.2 79.5 23.7 79.2 23.7 78.7L23.7 75.5C23.7 75 23.3 74.6 22.9 74.6C22.4 74.6 22.0 75 22.0 75.5L22.0 79.2C22.0 80.1 22.8 81 24.0 81C24.8 81 25.2 80.7 25.4 80.5C25.6 80.4 25.7 80.5 25.8 80.7C26.0 80.9 26.2 81 26.5 81C27.0 81 27.3 80.6 27.3 80.2L27.3 75.5C27.3 75 27.0 74.6 26.5 74.6Z "/><defs><clipPath id="satori_bc-id-1"><path x="0" y="102" width="230" height="102" d="M9,102 h212 a9,9 0 0 1 9,9 v84 a9,9 0 0 1 -9,9 h-212 a9,9 0 0 1 -9,-9 v-84 a9,9 0 0 1 9,-9"/></clipPath></defs><mask id="satori_om-id-1"><rect x="2" y="104" width="226" height="98" fill="#fff"/><path width="230" height="102" fill="none" stroke="#000" stroke-width="4" d="M2.636,104.636 A9,9 0 0 1 9,102 h212 a9,9 0 0 1 9,9 v84 a9,9 0 0 1 -9,9 h-212 a9,9 0 0 1 -9,-9 v-84 A9,9 0 0 1 2.636,104.636"/></mask><path x="0" y="102" width="230" height="102" fill="#E9BABA" d="M9,102 h212 a9,9 0 0 1 9,9 v84 a9,9 0 0 1 -9,9 h-212 a9,9 0 0 1 -9,-9 v-84 a9,9 0 0 1 9,-9"/><path width="230" height="102" clip-path="url(#satori_bc-id-1)" fill="none" stroke="black" stroke-width="4" d="M2.636,104.636 A9,9 0 0 1 9,102 h212 a9,9 0 0 1 9,9 v84 a9,9 0 0 1 -9,9 h-212 a9,9 0 0 1 -9,-9 v-84 A9,9 0 0 1 2.636,104.636"/><mask id="satori_ms-id-1-0-1" maskUnits="userSpaceOnUse"><rect x="0" y="0" width="600" height="400" fill="#fff"/><path x="12" y="109" width="206" height="78" fill="#000"  stroke-width="2" d="M18,109 h194 a6,6 0 0 1 6,6 v66 a6,6 0 0 1 -6,6 h-194 a6,6 0 0 1 -6,-6 v-66 a6,6 0 0 1 6,-6"/></mask><defs><filter id="satori_s-id-1-0-1" x="-0.6067961165048543%" y="-1.6025641025641024%" width="101.21359223300972%" height="103.20512820512822%"><feGaussianBlur stdDeviation="0.5" result="b"/><feFlood flood-color="rgb(0, 0, 0, 0.05)" in="SourceGraphic" result="f"/><feComposite in="f" in2="b" operator="in"/></filter></defs><g mask="url(#satori_ms-id-1-0-1)" filter="url(#satori_s-id-1-0-1)" opacity="1"><path x="11" y="108" width="206" height="78" fill="#fff" stroke="#fff" stroke-width="2" d="M17,108 h194 a6,6 0 0 1 6,6 v66 a6,6 0 0 1 -6,6 h-194 a6,6 0 0 1 -6,-6 v-66 a6,6 0 0 1 6,-6"/></g><mask id="satori_ms-id-1-0-0" maskUnits="userSpaceOnUse"><rect x="0" y="0" width="600" height="400" fill="#fff"/><path x="12" y="109" width="206" height="78" fill="#000"  stroke-width="2" d="M18,109 h194 a6,6 0 0 1 6,6 v66 a6,6 0 0 1 -6,6 h-194 a6,6 0 0 1 -6,-6 v-66 a6,6 0 0 1 6,-6"/></mask><defs><filter id="satori_s-id-1-0-0" x="-0.6067961165048543%" y="-1.6025641025641024%" width="101.21359223300972%" height="103.20512820512822%"><feGaussianBlur stdDeviation="0.5" result="b"/><feFlood flood-color="rgb(0, 0, 0, 0.05)" in="SourceGraphic" result="f"/><feComposite in="f" in2="b" operator="in"/></filter></defs><g mask="url(#satori_ms-id-1-0-0)" filter="url(#satori_s-id-1-0-0)" opacity="1"><path x="13" y="110" width="206" height="78" fill="#fff" stroke="#fff" stroke-width="2" d="M19,110 h194 a6,6 0 0 1 6,6 v66 a6,6 0 0 1 -6,6 h-194 a6,6 0 0 1 -6,-6 v-66 a6,6 0 0 1 6,-6"/></g><mask id="satori_om-id-1-0"><rect x="12" y="109" width="206" height="78" fill="#fff"/></mask><path x="12" y="109" width="206" height="78" fill="#FFEBEC" d="M18,109 h194 a6,6 0 0 1 6,6 v66 a6,6 0 0 1 -6,6 h-194 a6,6 0 0 1 -6,-6 v-66 a6,6 0 0 1 6,-6"/><mask id="satori_om-id-1-0-0"><rect x="109" y="123" width="12" height="50" fill="#fff"/></mask><mask id="satori_om-id-1-0-0-0"><rect x="109" y="123" width="12" height="19" fill="#fff"/></mask><path fill="black" d="M117.8 133.2C117.6 133.0 117.6 132.9 117.8 132.7C118.4 132.2 118.8 131.5 118.8 130.6C118.8 129.1 117.5 127.9 116.1 127.9L111.4 127.9C110.7 127.9 110.2 128.4 110.2 129.1L110.2 137.8C110.2 138.4 110.7 138.9 111.4 138.9L116.1 138.9C117.9 138.9 119.3 137.5 119.3 135.8C119.3 134.7 118.7 133.7 117.8 133.2ZM112.6 129.9C112.6 129.7 112.7 129.6 113.0 129.6L114.8 129.6C115.7 129.6 116.5 130.2 116.5 131.0C116.5 131.9 115.7 132.5 114.8 132.5L113.0 132.5C112.7 132.5 112.6 132.4 112.6 132.2ZM115.0 137.2L113.0 137.2C112.8 137.2 112.6 137.1 112.6 136.9L112.6 134.3C112.6 134.1 112.8 134.0 113.0 134.0L115.0 134.0C116.1 134.0 116.9 134.7 116.9 135.6C116.9 136.5 116.1 137.2 115.0 137.2Z "/><mask id="satori_om-id-1-0-0-1"><rect x="109" y="154" width="12" height="19" fill="#fff"/></mask><path fill="black" d="M118.3 166.1C117.7 165.9 117.1 166.2 116.8 166.7L116.8 166.7C116.2 167.5 115.5 168.0 114.6 168.0C113.0 168.0 111.8 166.3 111.8 164.2C111.8 162.2 113.0 160.5 114.6 160.5C115.6 160.5 116.4 161.1 116.9 162.0C117.2 162.5 117.8 162.8 118.3 162.6C118.9 162.4 119.2 161.8 118.9 161.2C118.9 161.2 118.9 161.2 118.9 161.2C118.0 159.6 116.4 158.5 114.6 158.5C111.8 158.5 109.6 161.1 109.6 164.2C109.6 167.4 111.8 170 114.6 170C116.4 170 117.9 169.0 118.8 167.5C119.1 167.0 118.8 166.4 118.3 166.1Z "/><mask id="satori_om-id-1-0-1"><rect x="14" y="171" width="31" height="14" fill="#fff"/></mask><path fill="#9E3533" d="M20.6 182.1C20.6 181.7 20.2 181.5 19.7 181.5C18.4 181.5 16.9 181.7 16.9 181.3C16.9 181.1 17.8 180.3 18.4 180.0C19.5 179.4 20.4 178.4 20.5 177.3C20.6 176.2 19.9 174.5 18.0 174.5C16.0 174.5 14.9 175.5 14.9 176.6C14.9 177.1 15.1 177.5 15.6 177.5C16.8 177.5 16.0 175.8 17.8 175.9C18.3 176.0 18.9 176.5 18.6 177.5C18.4 178.5 16.9 179.3 16.4 179.8C15.7 180.4 14.7 181.2 14.7 182.3C14.7 182.7 15.2 183 15.7 183L19.7 183C20.2 183 20.6 182.6 20.6 182.1ZM22.1 183.3C22.6 183.3 22.9 183.0 22.9 182.5C22.9 182.1 22.6 181.7 22.1 181.7C21.7 181.7 21.3 182.1 21.3 182.5C21.3 183.0 21.7 183.3 22.1 183.3ZM29.6 182.1C29.6 181.7 29.2 181.5 28.7 181.5C27.5 181.5 25.9 181.7 25.9 181.3C25.9 181.1 26.8 180.3 27.4 180.0C28.5 179.4 29.5 178.4 29.5 177.3C29.6 176.2 28.9 174.5 27.0 174.5C25.0 174.5 24.0 175.5 23.9 176.6C23.9 177.1 24.2 177.5 24.7 177.5C25.8 177.5 25.1 175.8 26.9 175.9C27.3 176.0 28.0 176.5 27.7 177.5C27.4 178.5 26.0 179.3 25.5 179.8C24.8 180.4 23.8 181.2 23.8 182.3C23.8 182.7 24.2 183 24.7 183L28.7 183C29.2 183 29.6 182.6 29.6 182.1ZM33.2 176.1C33.9 176.1 34.5 176.2 35.3 176.1C35.6 176.1 36.0 176.0 36.0 175.4C36.0 174.9 35.7 174.7 35.3 174.7C34.3 174.6 33.3 174.7 32.3 174.7C32.0 174.6 31.7 174.9 31.7 175.2C31.4 176.3 31.3 176.9 31.1 178.0C31.1 178.3 31.0 178.8 31.4 179.0C31.7 179.3 32.2 179.3 32.5 179.1C32.8 178.8 33.4 178.7 33.9 178.7C34.7 178.7 35.2 179.4 35.2 180.1C35.2 180.8 34.5 181.6 33.6 181.6C33.1 181.6 32.4 181.3 32.3 180.7C32.2 180.2 31.8 180.0 31.4 180.0C31.0 180.0 30.7 180.5 30.8 181.0C30.9 182.2 32.0 183.0 33.7 183.0C36.2 183.0 36.9 181.1 36.9 180.1C36.9 178.8 35.8 177.3 34.2 177.3C33.8 177.3 33.4 177.4 33.0 177.5C32.8 177.5 32.7 177.4 32.7 177.3C32.7 176.9 32.8 176.7 33.0 176.3C33.0 176.2 33.1 176.1 33.2 176.1ZM42.7 176.6C42.3 176.6 41.9 177 41.9 177.5L41.9 180.7C41.9 181.2 41.4 181.5 40.9 181.5C40.4 181.5 40.0 181.2 40.0 180.7L40.0 177.5C40.0 177 39.6 176.6 39.1 176.6C38.7 176.6 38.3 177 38.3 177.5L38.3 181.2C38.3 182.1 39.0 183 40.3 183C41.0 183 41.4 182.7 41.7 182.5C41.8 182.4 42.0 182.5 42.1 182.7C42.2 182.9 42.5 183 42.7 183C43.2 183 43.6 182.6 43.6 182.2L43.6 177.5C43.6 177 43.2 176.6 42.7 176.6Z "/></svg>