<svg width="600" height="400" viewBox="0 0 600 400" xmlns="http://www.w3.org/2000/svg"><mask id="satori_om-id"><rect x="0" y="0" width="102" height="204" fill="#fff"/></mask><defs><clipPath id="satori_bc-id-0"><path x="0" y="0" width="102" height="102" d="M9,0 h84 a9,9 0 0 1 9,9 v84 a9,9 0 0 1 -9,9 h-84 a9,9 0 0 1 -9,-9 v-84 a9,9 0 0 1 9,-9"/></clipPath></defs><mask id="satori_om-id-0"><rect x="2" y="2" width="98" height="98" fill="#fff"/><path width="102" height="102" fill="none" stroke="#000" stroke-width="4" d="M2.636,2.636 A9,9 0 0 1 9,0 h84 a9,9 0 0 1 9,9 v84 a9,9 0 0 1 -9,9 h-84 a9,9 0 0 1 -9,-9 v-84 A9,9 0 0 1 2.636,2.636"/></mask><path x="0" y="0" width="102" height="102" fill="#CCCCCC" d="M9,0 h84 a9,9 0 0 1 9,9 v84 a9,9 0 0 1 -9,9 h-84 a9,9 0 0 1 -9,-9 v-84 a9,9 0 0 1 9,-9"/><path width="102" height="102" clip-path="url(#satori_bc-id-0)" fill="none" stroke="black" stroke-width="4" d="M2.636,2.636 A9,9 0 0 1 9,0 h84 a9,9 0 0 1 9,9 v84 a9,9 0 0 1 -9,9 h-84 a9,9 0 0 1 -9,-9 v-84 A9,9 0 0 1 2.636,2.636"/><mask id="satori_ms-id-0-0-1" maskUnits="userSpaceOnUse"><rect x="0" y="0" width="600" height="400" fill="#fff"/><path x="12" y="7" width="78" height="78" fill="#000"  stroke-width="2" d="M18,7 h66 a6,6 0 0 1 6,6 v66 a6,6 0 0 1 -6,6 h-66 a6,6 0 0 1 -6,-6 v-66 a6,6 0 0 1 6,-6"/></mask><defs><filter id="satori_s-id-0-0-1" x="-1.6025641025641024%" y="-1.6025641025641024%" width="103.20512820512822%" height="103.20512820512822%"><feGaussianBlur stdDeviation="0.5" result="b"/><feFlood flood-color="rgb(0, 0, 0, 0.05)" in="SourceGraphic" result="f"/><feComposite in="f" in2="b" operator="in"/></filter></defs><g mask="url(#satori_ms-id-0-0-1)" filter="url(#satori_s-id-0-0-1)" opacity="1"><path x="11" y="6" width="78" height="78" fill="#fff" stroke="#fff" stroke-width="2" d="M17,6 h66 a6,6 0 0 1 6,6 v66 a6,6 0 0 1 -6,6 h-66 a6,6 0 0 1 -6,-6 v-66 a6,6 0 0 1 6,-6"/></g><mask id="satori_ms-id-0-0-0" maskUnits="userSpaceOnUse"><rect x="0" y="0" width="600" height="400" fill="#fff"/><path x="12" y="7" width="78" height="78" fill="#000"  stroke-width="2" d="M18,7 h66 a6,6 0 0 1 6,6 v66 a6,6 0 0 1 -6,6 h-66 a6,6 0 0 1 -6,-6 v-66 a6,6 0 0 1 6,-6"/></mask><defs><filter id="satori_s-id-0-0-0" x="-1.6025641025641024%" y="-1.6025641025641024%" width="103.20512820512822%" height="103.20512820512822%"><feGaussianBlur stdDeviation="0.5" result="b"/><feFlood flood-color="rgb(0, 0, 0, 0.05)" in="SourceGraphic" result="f"/><feComposite in="f" in2="b" operator="in"/></filter></defs><g mask="url(#satori_ms-id-0-0-0)" filter="url(#satori_s-id-0-0-0)" opacity="1"><path x="13" y="8" width="78" height="78" fill="#fff" stroke="#fff" stroke-width="2" d="M19,8 h66 a6,6 0 0 1 6,6 v66 a6,6 0 0 1 -6,6 h-66 a6,6 0 0 1 -6,-6 v-66 a6,6 0 0 1 6,-6"/></g><mask id="satori_om-id-0-0"><rect x="12" y="7" width="78" height="78" fill="#fff"/></mask><path x="12" y="7" width="78" height="78" fill="#FCFCFC" d="M18,7 h66 a6,6 0 0 1 6,6 v66 a6,6 0 0 1 -6,6 h-66 a6,6 0 0 1 -6,-6 v-66 a6,6 0 0 1 6,-6"/><mask id="satori_om-id-0-0-0"><rect x="46" y="36" width="11" height="20" fill="#fff"/></mask><path fill="black" d="M47.9 51.5L46.4 51.5L50.6 39.9L52.3 39.9L56.6 51.5L55.0 51.5L52.5 44.6Q52.3 43.9 52.0 43.0Q51.7 42.0 51.3 40.6L51.3 40.6L51.6 40.6Q51.2 42.0 50.8 43.0Q50.5 44.0 50.3 44.6L50.3 44.6L47.9 51.5ZM54.4 48.3L48.5 48.3L48.5 47.0L54.4 47.0L54.4 48.3Z "/><mask id="satori_om-id-0-0-1"><rect x="12" y="70" width="12" height="15" fill="#fff"/></mask><path fill="#CCCCCC" d="M14.5 72.9L15.8 72.9L15.8 81.6L14.7 81.6L14.7 73.9L14.6 73.9L12.5 75.5L12.5 74.3L14.5 72.9ZM19.9 81.7L19.9 81.7Q19.2 81.7 18.7 81.4Q18.2 81.2 17.9 80.6Q17.6 80.1 17.6 79.2L17.6 79.2L17.6 75.2L18.7 75.2L18.7 79.2Q18.7 79.9 19.1 80.4Q19.5 80.8 20.2 80.8L20.2 80.8Q20.6 80.8 21.0 80.6Q21.4 80.4 21.6 80.0Q21.8 79.6 21.8 79.0L21.8 79.0L21.8 75.2L22.9 75.2L22.9 81.6L21.8 81.6L21.8 80.1L22.0 80.1Q21.7 81.0 21.2 81.3Q20.6 81.7 19.9 81.7Z "/><defs><clipPath id="satori_bc-id-1"><path x="0" y="102" width="102" height="102" d="M9,102 h84 a9,9 0 0 1 9,9 v84 a9,9 0 0 1 -9,9 h-84 a9,9 0 0 1 -9,-9 v-84 a9,9 0 0 1 9,-9"/></clipPath></defs><mask id="satori_om-id-1"><rect x="2" y="104" width="98" height="98" fill="#fff"/><path width="102" height="102" fill="none" stroke="#000" stroke-width="4" d="M2.636,104.636 A9,9 0 0 1 9,102 h84 a9,9 0 0 1 9,9 v84 a9,9 0 0 1 -9,9 h-84 a9,9 0 0 1 -9,-9 v-84 A9,9 0 0 1 2.636,104.636"/></mask><path x="0" y="102" width="102" height="102" fill="#CCCCCC" d="M9,102 h84 a9,9 0 0 1 9,9 v84 a9,9 0 0 1 -9,9 h-84 a9,9 0 0 1 -9,-9 v-84 a9,9 0 0 1 9,-9"/><path width="102" height="102" clip-path="url(#satori_bc-id-1)" fill="none" stroke="black" stroke-width="4" d="M2.636,104.636 A9,9 0 0 1 9,102 h84 a9,9 0 0 1 9,9 v84 a9,9 0 0 1 -9,9 h-84 a9,9 0 0 1 -9,-9 v-84 A9,9 0 0 1 2.636,104.636"/><mask id="satori_ms-id-1-0-1" maskUnits="userSpaceOnUse"><rect x="0" y="0" width="600" height="400" fill="#fff"/><path x="12" y="109" width="78" height="78" fill="#000"  stroke-width="2" d="M18,109 h66 a6,6 0 0 1 6,6 v66 a6,6 0 0 1 -6,6 h-66 a6,6 0 0 1 -6,-6 v-66 a6,6 0 0 1 6,-6"/></mask><defs><filter id="satori_s-id-1-0-1" x="-1.6025641025641024%" y="-1.6025641025641024%" width="103.20512820512822%" height="103.20512820512822%"><feGaussianBlur stdDeviation="0.5" result="b"/><feFlood flood-color="rgb(0, 0, 0, 0.05)" in="SourceGraphic" result="f"/><feComposite in="f" in2="b" operator="in"/></filter></defs><g mask="url(#satori_ms-id-1-0-1)" filter="url(#satori_s-id-1-0-1)" opacity="1"><path x="11" y="108" width="78" height="78" fill="#fff" stroke="#fff" stroke-width="2" d="M17,108 h66 a6,6 0 0 1 6,6 v66 a6,6 0 0 1 -6,6 h-66 a6,6 0 0 1 -6,-6 v-66 a6,6 0 0 1 6,-6"/></g><mask id="satori_ms-id-1-0-0" maskUnits="userSpaceOnUse"><rect x="0" y="0" width="600" height="400" fill="#fff"/><path x="12" y="109" width="78" height="78" fill="#000"  stroke-width="2" d="M18,109 h66 a6,6 0 0 1 6,6 v66 a6,6 0 0 1 -6,6 h-66 a6,6 0 0 1 -6,-6 v-66 a6,6 0 0 1 6,-6"/></mask><defs><filter id="satori_s-id-1-0-0" x="-1.6025641025641024%" y="-1.6025641025641024%" width="103.20512820512822%" height="103.20512820512822%"><feGaussianBlur stdDeviation="0.5" result="b"/><feFlood flood-color="rgb(0, 0, 0, 0.05)" in="SourceGraphic" result="f"/><feComposite in="f" in2="b" operator="in"/></filter></defs><g mask="url(#satori_ms-id-1-0-0)" filter="url(#satori_s-id-1-0-0)" opacity="1"><path x="13" y="110" width="78" height="78" fill="#fff" stroke="#fff" stroke-width="2" d="M19,110 h66 a6,6 0 0 1 6,6 v66 a6,6 0 0 1 -6,6 h-66 a6,6 0 0 1 -6,-6 v-66 a6,6 0 0 1 6,-6"/></g><mask id="satori_om-id-1-0"><rect x="12" y="109" width="78" height="78" fill="#fff"/></mask><path x="12" y="109" width="78" height="78" fill="#FCFCFC" d="M18,109 h66 a6,6 0 0 1 6,6 v66 a6,6 0 0 1 -6,6 h-66 a6,6 0 0 1 -6,-6 v-66 a6,6 0 0 1 6,-6"/><mask id="satori_om-id-1-0-0"><rect x="45" y="123" width="12" height="50" fill="#fff"/></mask><mask id="satori_om-id-1-0-0-0"><rect x="45" y="123" width="12" height="19" fill="#fff"/></mask><path fill="black" d="M50.6 138.5L46.4 138.5L46.4 126.9L50.5 126.9Q51.7 126.9 52.5 127.3Q53.3 127.7 53.7 128.4Q54.1 129.1 54.1 129.9L54.1 129.9Q54.1 130.7 53.9 131.2Q53.6 131.7 53.2 132.0Q52.7 132.3 52.2 132.4L52.2 132.4L52.2 132.5Q52.8 132.5 53.3 132.9Q53.9 133.2 54.2 133.8Q54.6 134.5 54.6 135.4L54.6 135.4Q54.6 136.3 54.2 137.0Q53.7 137.7 52.9 138.1Q52.0 138.5 50.6 138.5L50.6 138.5ZM47.8 133.2L47.8 137.2L50.6 137.2Q51.9 137.2 52.5 136.7Q53.1 136.2 53.1 135.4L53.1 135.4Q53.1 134.8 52.8 134.3Q52.5 133.8 52.0 133.5Q51.4 133.2 50.7 133.2L50.7 133.2L47.8 133.2ZM47.8 128.2L47.8 132.0L50.4 132.0Q51.1 132.0 51.6 131.7Q52.1 131.5 52.4 131.0Q52.7 130.6 52.7 130.0L52.7 130.0Q52.7 129.2 52.1 128.7Q51.6 128.2 50.5 128.2L50.5 128.2L47.8 128.2Z "/><mask id="satori_om-id-1-0-0-1"><rect x="45" y="154" width="12" height="19" fill="#fff"/></mask><path fill="black" d="M51.1 169.7L51.1 169.7Q49.6 169.7 48.4 168.9Q47.2 168.2 46.6 166.9Q45.9 165.5 45.9 163.7L45.9 163.7Q45.9 161.9 46.6 160.5Q47.2 159.2 48.4 158.4Q49.6 157.7 51.1 157.7L51.1 157.7Q52 157.7 52.8 158.0Q53.6 158.2 54.2 158.7Q54.8 159.2 55.3 159.9Q55.7 160.6 55.8 161.5L55.8 161.5L54.4 161.5Q54.2 160.9 53.9 160.5Q53.6 160.0 53.2 159.7Q52.8 159.4 52.2 159.2Q51.7 159.1 51.1 159.1L51.1 159.1Q50.0 159.1 49.2 159.6Q48.3 160.1 47.8 161.2Q47.3 162.2 47.3 163.7L47.3 163.7Q47.3 165.1 47.8 166.2Q48.3 167.2 49.2 167.8Q50.0 168.3 51.1 168.3L51.1 168.3Q51.7 168.3 52.2 168.1Q52.8 168.0 53.2 167.7Q53.6 167.3 53.9 166.9Q54.2 166.4 54.4 165.8L54.4 165.8L55.8 165.8Q55.7 166.7 55.3 167.4Q54.8 168.1 54.2 168.6Q53.6 169.1 52.8 169.4Q52.0 169.7 51.1 169.7Z "/><mask id="satori_om-id-1-0-1"><rect x="12" y="172" width="12" height="15" fill="#fff"/></mask><path fill="#CCCCCC" d="M14.5 174.9L15.8 174.9L15.8 183.6L14.7 183.6L14.7 175.9L14.6 175.9L12.5 177.5L12.5 176.3L14.5 174.9ZM19.9 183.7L19.9 183.7Q19.2 183.7 18.7 183.4Q18.2 183.2 17.9 182.6Q17.6 182.1 17.6 181.2L17.6 181.2L17.6 177.2L18.7 177.2L18.7 181.2Q18.7 181.9 19.1 182.4Q19.5 182.8 20.2 182.8L20.2 182.8Q20.6 182.8 21.0 182.6Q21.4 182.4 21.6 182.0Q21.8 181.6 21.8 181.0L21.8 181.0L21.8 177.2L22.9 177.2L22.9 183.6L21.8 183.6L21.8 182.1L22.0 182.1Q21.7 183.0 21.2 183.3Q20.6 183.7 19.9 183.7Z "/></svg>