<svg width="600" height="400" viewBox="0 0 600 400" xmlns="http://www.w3.org/2000/svg"><mask id="satori_om-id"><rect x="0" y="0" width="773" height="51" fill="#fff"/></mask><rect x="0" y="0" width="773" height="51" fill="#fff"/><mask id="satori_om-id-0"><rect x="0" y="0" width="149" height="51" fill="#fff"/></mask><mask id="satori_om-id-0-0"><rect x="0" y="16" width="149" height="19" fill="#fff"/></mask><path fill="black" d="M8.3 31.5L1.4 31.5L1.4 19.9L2.8 19.9L2.8 30.2L8.3 30.2L8.3 31.5ZM12.6 31.7L12.6 31.7Q11.8 31.7 11.1 31.4Q10.4 31.1 10.0 30.5Q9.6 29.9 9.6 29.0L9.6 29.0Q9.6 28.3 9.9 27.8Q10.2 27.4 10.7 27.1Q11.2 26.8 11.8 26.7Q12.4 26.6 13.0 26.5L13.0 26.5Q13.8 26.4 14.3 26.3Q14.7 26.3 15.0 26.2Q15.2 26.0 15.2 25.7L15.2 25.7L15.2 25.6Q15.2 25.1 15.0 24.8Q14.8 24.4 14.4 24.2Q14.0 24.0 13.4 24.0L13.4 24.0Q12.8 24.0 12.3 24.2Q11.9 24.4 11.6 24.7Q11.3 25.0 11.2 25.3L11.2 25.3L9.9 24.9Q10.1 24.2 10.7 23.7Q11.2 23.2 11.9 23.0Q12.6 22.8 13.3 22.8L13.3 22.8Q13.8 22.8 14.4 22.9Q15.0 23.0 15.5 23.3Q16.0 23.6 16.3 24.2Q16.6 24.8 16.6 25.8L16.6 25.8L16.6 31.5L15.2 31.5L15.2 30.3L15.1 30.3Q15.0 30.6 14.7 30.9Q14.4 31.3 13.8 31.5Q13.3 31.7 12.6 31.7ZM12.8 30.5L12.8 30.5Q13.6 30.5 14.1 30.2Q14.7 29.9 14.9 29.4Q15.2 28.9 15.2 28.4L15.2 28.4L15.2 27.2Q15.1 27.3 14.8 27.4Q14.6 27.4 14.2 27.5Q13.9 27.6 13.5 27.6Q13.2 27.6 12.9 27.7L12.9 27.7Q12.4 27.7 12.0 27.9Q11.6 28.0 11.3 28.3Q11.0 28.6 11.0 29.1L11.0 29.1Q11.0 29.5 11.3 29.8Q11.5 30.1 11.9 30.3Q12.3 30.5 12.8 30.5ZM18.9 34.7L18.9 34.7L19.1 33.5L19.4 33.5Q19.8 33.6 20.1 33.5Q20.5 33.5 20.7 33.2Q21.0 32.9 21.2 32.3L21.2 32.3L21.5 31.5L18.1 22.9L19.7 22.9L21.5 28.0Q21.8 28.7 22.0 29.5Q22.2 30.2 22.4 30.9L22.4 30.9L21.9 30.9Q22.2 30.2 22.4 29.5Q22.6 28.7 22.8 28.0L22.8 28.0L24.7 22.9L26.2 22.9L22.4 32.9Q22.1 33.5 21.8 34.0Q21.4 34.4 20.9 34.6Q20.4 34.8 19.8 34.8L19.8 34.8Q19.5 34.8 19.2 34.8Q19.0 34.7 18.9 34.7ZM31.3 31.7L31.3 31.7Q30.1 31.7 29.2 31.1Q28.3 30.6 27.8 29.6Q27.3 28.6 27.3 27.2L27.3 27.2Q27.3 25.9 27.8 24.9Q28.3 23.9 29.2 23.3Q30.1 22.8 31.3 22.8L31.3 22.8Q32.5 22.8 33.4 23.3Q34.2 23.9 34.7 24.9Q35.2 25.9 35.2 27.2L35.2 27.2Q35.2 28.6 34.7 29.6Q34.2 30.6 33.4 31.1Q32.5 31.7 31.3 31.7ZM31.3 30.4L31.3 30.4Q32.1 30.4 32.7 30.0Q33.3 29.6 33.6 28.8Q33.8 28.1 33.8 27.2L33.8 27.2Q33.8 26.4 33.6 25.6Q33.3 24.9 32.7 24.4Q32.1 24.0 31.3 24.0L31.3 24.0Q30.4 24.0 29.9 24.4Q29.3 24.9 29.0 25.6Q28.7 26.3 28.7 27.2L28.7 27.2Q28.7 28.1 29.0 28.8Q29.3 29.6 29.9 30.0Q30.4 30.4 31.3 30.4ZM40.1 31.6L40.1 31.6Q39.3 31.6 38.6 31.3Q37.9 30.9 37.6 30.2Q37.2 29.4 37.2 28.3L37.2 28.3L37.2 22.9L38.6 22.9L38.6 28.2Q38.6 29.2 39.1 29.8Q39.6 30.4 40.5 30.4L40.5 30.4Q41.1 30.4 41.6 30.1Q42.1 29.8 42.4 29.3Q42.7 28.8 42.7 28.0L42.7 28.0L42.7 22.9L44.1 22.9L44.1 31.5L42.8 31.5L42.8 29.4L43 29.4Q42.6 30.6 41.9 31.1Q41.1 31.6 40.1 31.6ZM45.4 22.9L50.0 22.9L50.0 24.1L45.4 24.1L45.4 22.9ZM46.8 29.4L46.8 20.8L48.2 20.8L48.2 29.3Q48.2 29.9 48.4 30.1Q48.6 30.4 49.2 30.4L49.2 30.4Q49.3 30.4 49.5 30.3Q49.7 30.3 49.9 30.3L49.9 30.3L50.1 31.5Q49.9 31.5 49.7 31.6Q49.4 31.6 49.1 31.6L49.1 31.6Q48.0 31.6 47.4 31.0Q46.8 30.4 46.8 29.4L46.8 29.4Z M61.2 31.5L59.5 31.5L55.2 19.9L56.8 19.9L59.2 26.8Q59.4 27.4 59.8 28.4Q60.1 29.3 60.5 30.8L60.5 30.8L60.2 30.8Q60.6 29.3 60.9 28.3Q61.3 27.4 61.5 26.8L61.5 26.8L63.9 19.9L65.4 19.9L61.2 31.5ZM68.3 31.5L67.0 31.5L67.0 22.9L68.3 22.9L68.3 31.5ZM67.6 21.4L67.6 21.4Q67.3 21.4 67.0 21.1Q66.7 20.9 66.7 20.5L66.7 20.5Q66.7 20.1 67.0 19.8Q67.3 19.6 67.6 19.6L67.6 19.6Q68.0 19.6 68.3 19.8Q68.6 20.1 68.6 20.5L68.6 20.5Q68.6 20.9 68.3 21.1Q68.0 21.4 67.6 21.4ZM73.6 31.7L73.6 31.7Q72.8 31.7 72.1 31.4Q71.4 31.1 70.9 30.6Q70.4 30.1 70.3 29.3L70.3 29.3L71.6 29.1Q71.8 29.8 72.3 30.1Q72.8 30.5 73.6 30.5L73.6 30.5Q74.5 30.5 75.1 30.1Q75.6 29.7 75.6 29.2L75.6 29.2Q75.6 28.7 75.3 28.4Q75.0 28.1 74.3 28.0L74.3 28.0L72.9 27.6Q71.7 27.4 71.1 26.8Q70.6 26.2 70.6 25.3L70.6 25.3Q70.6 24.5 71.0 24.0Q71.4 23.4 72.1 23.1Q72.8 22.8 73.7 22.8L73.7 22.8Q74.6 22.8 75.3 23.0Q75.9 23.3 76.3 23.8Q76.7 24.3 76.9 25.0L76.9 25.0L75.6 25.2Q75.4 24.7 75.0 24.3Q74.6 23.9 73.8 23.9L73.8 23.9Q73.0 23.9 72.5 24.3Q72.0 24.6 72.0 25.2L72.0 25.2Q72.0 25.7 72.3 26.0Q72.7 26.3 73.4 26.4L73.4 26.4L74.7 26.7Q75.9 27.0 76.5 27.6Q77.0 28.2 77.0 29.1L77.0 29.1Q77.0 29.9 76.6 30.4Q76.2 31.0 75.4 31.4Q74.6 31.7 73.6 31.7ZM81.9 31.6L81.9 31.6Q81.1 31.6 80.4 31.3Q79.7 30.9 79.3 30.2Q79.0 29.4 79.0 28.3L79.0 28.3L79.0 22.9L80.4 22.9L80.4 28.2Q80.4 29.2 80.9 29.8Q81.4 30.4 82.3 30.4L82.3 30.4Q82.9 30.4 83.4 30.1Q83.9 29.8 84.2 29.3Q84.5 28.8 84.5 28.0L84.5 28.0L84.5 22.9L85.9 22.9L85.9 31.5L84.6 31.5L84.6 29.4L84.8 29.4Q84.4 30.6 83.6 31.1Q82.9 31.6 81.9 31.6ZM90.7 31.7L90.7 31.7Q89.9 31.7 89.2 31.4Q88.6 31.1 88.2 30.5Q87.8 29.9 87.8 29.0L87.8 29.0Q87.8 28.3 88.1 27.8Q88.4 27.4 88.8 27.1Q89.3 26.8 89.9 26.7Q90.5 26.6 91.1 26.5L91.1 26.5Q91.9 26.4 92.4 26.3Q92.9 26.3 93.1 26.2Q93.4 26.0 93.4 25.7L93.4 25.7L93.4 25.6Q93.4 25.1 93.1 24.8Q92.9 24.4 92.5 24.2Q92.1 24.0 91.5 24.0L91.5 24.0Q90.9 24.0 90.5 24.2Q90.0 24.4 89.7 24.7Q89.5 25.0 89.4 25.3L89.4 25.3L88.0 24.9Q88.3 24.2 88.8 23.7Q89.4 23.2 90.1 23.0Q90.8 22.8 91.5 22.8L91.5 22.8Q92.0 22.8 92.6 22.9Q93.1 23.0 93.6 23.3Q94.1 23.6 94.4 24.2Q94.7 24.8 94.7 25.8L94.7 25.8L94.7 31.5L93.4 31.5L93.4 30.3L93.3 30.3Q93.1 30.6 92.8 30.9Q92.5 31.3 92.0 31.5Q91.5 31.7 90.7 31.7ZM91.0 30.5L91.0 30.5Q91.7 30.5 92.3 30.2Q92.8 29.9 93.1 29.4Q93.4 28.9 93.4 28.4L93.4 28.4L93.4 27.2Q93.3 27.3 93.0 27.4Q92.7 27.4 92.4 27.5Q92.0 27.6 91.7 27.6Q91.3 27.6 91.1 27.7L91.1 27.7Q90.6 27.7 90.1 27.9Q89.7 28.0 89.4 28.3Q89.2 28.6 89.2 29.1L89.2 29.1Q89.2 29.5 89.4 29.8Q89.6 30.1 90.0 30.3Q90.4 30.5 91.0 30.5ZM97.1 19.9L98.5 19.9L98.5 31.5L97.1 31.5L97.1 19.9ZM102.2 31.5L100.8 31.5L100.8 22.9L102.2 22.9L102.2 31.5ZM101.5 21.4L101.5 21.4Q101.1 21.4 100.9 21.1Q100.6 20.9 100.6 20.5L100.6 20.5Q100.6 20.1 100.9 19.8Q101.1 19.6 101.5 19.6L101.5 19.6Q101.9 19.6 102.2 19.8Q102.5 20.1 102.5 20.5L102.5 20.5Q102.5 20.9 102.2 21.1Q101.9 21.4 101.5 21.4ZM111.1 31.5L104.3 31.5L104.3 30.5L109.2 24.2L109.2 24.1L104.5 24.1L104.5 22.9L110.9 22.9L110.9 24.0L106.2 30.1L106.2 30.2L111.1 30.2L111.1 31.5ZM115.6 31.7L115.6 31.7Q114.8 31.7 114.1 31.4Q113.5 31.1 113.1 30.5Q112.7 29.9 112.7 29.0L112.7 29.0Q112.7 28.3 113.0 27.8Q113.3 27.4 113.7 27.1Q114.2 26.8 114.8 26.7Q115.4 26.6 116.0 26.5L116.0 26.5Q116.8 26.4 117.3 26.3Q117.8 26.3 118.0 26.2Q118.3 26.0 118.3 25.7L118.3 25.7L118.3 25.6Q118.3 25.1 118.0 24.8Q117.8 24.4 117.4 24.2Q117.0 24.0 116.4 24.0L116.4 24.0Q115.8 24.0 115.4 24.2Q114.9 24.4 114.6 24.7Q114.4 25.0 114.3 25.3L114.3 25.3L112.9 24.9Q113.2 24.2 113.7 23.7Q114.3 23.2 114.9 23.0Q115.6 22.8 116.4 22.8L116.4 22.8Q116.9 22.8 117.5 22.9Q118.0 23.0 118.5 23.3Q119.0 23.6 119.3 24.2Q119.6 24.8 119.6 25.8L119.6 25.8L119.6 31.5L118.3 31.5L118.3 30.3L118.2 30.3Q118.0 30.6 117.7 30.9Q117.4 31.3 116.9 31.5Q116.4 31.7 115.6 31.7ZM115.9 30.5L115.9 30.5Q116.6 30.5 117.2 30.2Q117.7 29.9 118.0 29.4Q118.3 28.9 118.3 28.4L118.3 28.4L118.3 27.2Q118.2 27.3 117.9 27.4Q117.6 27.4 117.3 27.5Q116.9 27.6 116.6 27.6Q116.2 27.6 116.0 27.7L116.0 27.7Q115.5 27.7 115.0 27.9Q114.6 28.0 114.3 28.3Q114.1 28.6 114.1 29.1L114.1 29.1Q114.1 29.5 114.3 29.8Q114.5 30.1 114.9 30.3Q115.3 30.5 115.9 30.5ZM121.0 22.9L125.5 22.9L125.5 24.1L121.0 24.1L121.0 22.9ZM122.3 29.4L122.3 20.8L123.7 20.8L123.7 29.3Q123.7 29.9 123.9 30.1Q124.2 30.4 124.7 30.4L124.7 30.4Q124.8 30.4 125.1 30.3Q125.3 30.3 125.4 30.3L125.4 30.3L125.7 31.5Q125.4 31.5 125.2 31.6Q124.9 31.6 124.6 31.6L124.6 31.6Q123.5 31.6 122.9 31.0Q122.3 30.4 122.3 29.4L122.3 29.4ZM128.6 31.5L127.2 31.5L127.2 22.9L128.6 22.9L128.6 31.5ZM127.9 21.4L127.9 21.4Q127.5 21.4 127.2 21.1Q126.9 20.9 126.9 20.5L126.9 20.5Q126.9 20.1 127.2 19.8Q127.5 19.6 127.9 19.6L127.9 19.6Q128.3 19.6 128.6 19.8Q128.8 20.1 128.8 20.5L128.8 20.5Q128.8 20.9 128.6 21.1Q128.3 21.4 127.9 21.4ZM134.4 31.7L134.4 31.7Q133.3 31.7 132.4 31.1Q131.5 30.6 131.0 29.6Q130.5 28.6 130.5 27.2L130.5 27.2Q130.5 25.9 131.0 24.9Q131.5 23.9 132.4 23.3Q133.3 22.8 134.4 22.8L134.4 22.8Q135.6 22.8 136.5 23.3Q137.4 23.9 137.9 24.9Q138.4 25.9 138.4 27.2L138.4 27.2Q138.4 28.6 137.9 29.6Q137.4 30.6 136.5 31.1Q135.6 31.7 134.4 31.7ZM134.4 30.4L134.4 30.4Q135.3 30.4 135.9 30.0Q136.4 29.6 136.7 28.8Q137.0 28.1 137.0 27.2L137.0 27.2Q137.0 26.4 136.7 25.6Q136.4 24.9 135.9 24.4Q135.3 24.0 134.4 24.0L134.4 24.0Q133.6 24.0 133.0 24.4Q132.5 24.9 132.2 25.6Q131.9 26.3 131.9 27.2L131.9 27.2Q131.9 28.1 132.2 28.8Q132.5 29.6 133.0 30.0Q133.6 30.4 134.4 30.4ZM141.7 26.4L141.7 26.4L141.7 31.5L140.3 31.5L140.3 22.9L141.7 22.9L141.7 25.0L141.4 25.0Q141.8 23.8 142.6 23.3Q143.3 22.8 144.3 22.8L144.3 22.8Q145.2 22.8 145.8 23.1Q146.5 23.5 146.9 24.2Q147.3 24.9 147.3 26.0L147.3 26.0L147.3 31.5L145.9 31.5L145.9 26.2Q145.9 25.1 145.4 24.6Q144.8 24.0 143.9 24.0L143.9 24.0Q143.3 24.0 142.8 24.3Q142.3 24.5 142.0 25.1Q141.7 25.6 141.7 26.4Z "/><mask id="satori_om-id-1"><rect x="149" y="0" width="275" height="51" fill="#fff"/></mask><mask id="satori_om-id-1-0"><rect x="149" y="16" width="275" height="19" fill="#fff"/></mask><path fill="black" d="M157.6 31.5L150.4 31.5L150.4 19.9L157.5 19.9L157.5 21.2L151.8 21.2L151.8 25.0L157.1 25.0L157.1 26.3L151.8 26.3L151.8 30.2L157.6 30.2L157.6 31.5ZM163.0 31.7L163.0 31.7Q161.9 31.7 161.1 31.1Q160.2 30.6 159.8 29.6Q159.3 28.6 159.3 27.2L159.3 27.2Q159.3 25.8 159.8 24.8Q160.2 23.8 161.1 23.3Q161.9 22.8 163.0 22.8L163.0 22.8Q163.8 22.8 164.3 23.0Q164.8 23.3 165.0 23.6Q165.3 23.9 165.5 24.2L165.5 24.2L165.6 24.2L165.6 19.9L167.0 19.9L167.0 31.5L165.6 31.5L165.6 30.2L165.5 30.2Q165.3 30.5 165.0 30.8Q164.7 31.2 164.2 31.4Q163.7 31.7 163.0 31.7ZM163.2 30.4L163.2 30.4Q164.0 30.4 164.5 30.0Q165.1 29.6 165.4 28.9Q165.6 28.2 165.6 27.2L165.6 27.2Q165.6 26.2 165.4 25.5Q165.1 24.8 164.5 24.4Q164.0 24.0 163.2 24.0L163.2 24.0Q162.4 24.0 161.8 24.4Q161.3 24.8 161.0 25.5Q160.7 26.3 160.7 27.2L160.7 27.2Q160.7 28.1 161.0 28.9Q161.3 29.6 161.8 30.0Q162.4 30.4 163.2 30.4ZM170.7 31.5L169.4 31.5L169.4 22.9L170.7 22.9L170.7 31.5ZM170.0 21.4L170.0 21.4Q169.7 21.4 169.4 21.1Q169.1 20.9 169.1 20.5L169.1 20.5Q169.1 20.1 169.4 19.8Q169.7 19.6 170.0 19.6L170.0 19.6Q170.4 19.6 170.7 19.8Q171.0 20.1 171.0 20.5L171.0 20.5Q171.0 20.9 170.7 21.1Q170.4 21.4 170.0 21.4ZM172.1 22.9L176.6 22.9L176.6 24.1L172.1 24.1L172.1 22.9ZM173.4 29.4L173.4 20.8L174.8 20.8L174.8 29.3Q174.8 29.9 175.0 30.1Q175.3 30.4 175.8 30.4L175.8 30.4Q176.0 30.4 176.2 30.3Q176.4 30.3 176.5 30.3L176.5 30.3L176.8 31.5Q176.5 31.5 176.3 31.6Q176.0 31.6 175.8 31.6L175.8 31.6Q174.6 31.6 174.0 31.0Q173.4 30.4 173.4 29.4L173.4 29.4Z "/><mask id="satori_om-id-1-0-1"><rect x="178" y="16" width="86" height="19" fill="#fff"/></mask><path fill="black" d="M182.1 31.7L182.1 31.7Q181.2 31.7 180.5 31.4Q179.8 31.1 179.4 30.6Q178.9 30.1 178.8 29.3L178.8 29.3L180.1 29.1Q180.3 29.8 180.8 30.1Q181.3 30.5 182.1 30.5L182.1 30.5Q183.0 30.5 183.5 30.1Q184.1 29.7 184.1 29.2L184.1 29.2Q184.1 28.7 183.8 28.4Q183.4 28.1 182.8 28.0L182.8 28.0L181.4 27.6Q180.2 27.4 179.6 26.8Q179.0 26.2 179.0 25.3L179.0 25.3Q179.0 24.5 179.4 24.0Q179.9 23.4 180.6 23.1Q181.3 22.8 182.2 22.8L182.2 22.8Q183.1 22.8 183.8 23.0Q184.4 23.3 184.8 23.8Q185.2 24.3 185.3 25.0L185.3 25.0L184.1 25.2Q183.9 24.7 183.5 24.3Q183.1 23.9 182.2 23.9L182.2 23.9Q181.4 23.9 180.9 24.3Q180.4 24.6 180.4 25.2L180.4 25.2Q180.4 25.7 180.8 26.0Q181.1 26.3 181.9 26.4L181.9 26.4L183.2 26.7Q184.4 27.0 184.9 27.6Q185.5 28.2 185.5 29.1L185.5 29.1Q185.5 29.9 185.1 30.4Q184.6 31.0 183.9 31.4Q183.1 31.7 182.1 31.7ZM188.8 31.5L187.4 31.5L187.4 22.9L188.8 22.9L188.8 24.2L188.9 24.2Q189.1 23.5 189.7 23.1Q190.3 22.8 191.1 22.8L191.1 22.8Q191.2 22.8 191.4 22.8Q191.6 22.8 191.7 22.8L191.7 22.8L191.7 24.2Q191.7 24.2 191.4 24.1Q191.2 24.1 190.9 24.1L190.9 24.1Q190.3 24.1 189.8 24.3Q189.4 24.6 189.1 25.0Q188.8 25.5 188.8 26.1L188.8 26.1L188.8 31.5ZM196.8 31.7L196.8 31.7Q195.6 31.7 194.7 31.1Q193.8 30.6 193.3 29.6Q192.8 28.6 192.8 27.2L192.8 27.2Q192.8 25.9 193.3 24.9Q193.8 23.9 194.7 23.3Q195.6 22.8 196.8 22.8L196.8 22.8Q197.4 22.8 198.0 22.9Q198.6 23.1 199.0 23.4Q199.5 23.8 199.8 24.2Q200.2 24.7 200.3 25.3L200.3 25.3L199.0 25.6Q198.9 25.2 198.7 24.9Q198.5 24.6 198.2 24.4Q197.9 24.2 197.6 24.1Q197.2 24.0 196.8 24.0L196.8 24.0Q195.9 24.0 195.4 24.4Q194.8 24.9 194.5 25.6Q194.3 26.3 194.3 27.2L194.3 27.2Q194.3 28.1 194.5 28.8Q194.8 29.6 195.4 30.0Q195.9 30.4 196.8 30.4L196.8 30.4Q197.2 30.4 197.6 30.3Q198.0 30.2 198.2 30.0Q198.5 29.8 198.7 29.5Q198.9 29.2 199.0 28.8L199.0 28.8L200.3 29.1Q200.2 29.7 199.9 30.2Q199.5 30.6 199.1 31.0Q198.6 31.3 198.0 31.5Q197.4 31.7 196.8 31.7ZM205.1 19.3L206.4 19.3L202.6 33.3L201.4 33.3L205.1 19.3ZM208.6 31.5L207.0 31.5L211.3 19.9L213.0 19.9L217.3 31.5L215.7 31.5L213.2 24.6Q213.0 23.9 212.7 23.0Q212.4 22.0 212.0 20.6L212.0 20.6L212.3 20.6Q211.9 22.0 211.5 23.0Q211.2 24.0 211.0 24.6L211.0 24.6L208.6 31.5ZM215.1 28.3L209.2 28.3L209.2 27.0L215.1 27.0L215.1 28.3ZM220.2 34.8L218.8 34.8L218.8 22.9L220.1 22.9L220.1 24.2L220.3 24.2Q220.4 23.9 220.7 23.6Q221.0 23.3 221.5 23.0Q222.0 22.8 222.8 22.8L222.8 22.8Q223.9 22.8 224.7 23.3Q225.5 23.8 226.0 24.8Q226.5 25.8 226.5 27.2L226.5 27.2Q226.5 28.6 226.0 29.6Q225.5 30.6 224.7 31.1Q223.9 31.7 222.8 31.7L222.8 31.7Q222.0 31.7 221.5 31.4Q221.0 31.2 220.7 30.8Q220.4 30.5 220.3 30.2L220.3 30.2L220.2 30.2L220.2 34.8ZM222.6 30.4L222.6 30.4Q223.4 30.4 223.9 30.0Q224.5 29.6 224.8 28.9Q225.1 28.1 225.1 27.2L225.1 27.2Q225.1 26.3 224.8 25.5Q224.5 24.8 223.9 24.4Q223.4 24.0 222.6 24.0L222.6 24.0Q221.8 24.0 221.3 24.4Q220.7 24.8 220.4 25.5Q220.1 26.2 220.1 27.2L220.1 27.2Q220.1 28.2 220.4 28.9Q220.7 29.6 221.3 30.0Q221.8 30.4 222.6 30.4ZM229.8 34.8L228.4 34.8L228.4 22.9L229.8 22.9L229.8 24.2L229.9 24.2Q230.1 23.9 230.4 23.6Q230.6 23.3 231.1 23.0Q231.6 22.8 232.4 22.8L232.4 22.8Q233.5 22.8 234.3 23.3Q235.2 23.8 235.6 24.8Q236.1 25.8 236.1 27.2L236.1 27.2Q236.1 28.6 235.6 29.6Q235.2 30.6 234.4 31.1Q233.5 31.7 232.4 31.7L232.4 31.7Q231.7 31.7 231.2 31.4Q230.7 31.2 230.4 30.8Q230.1 30.5 229.9 30.2L229.9 30.2L229.8 30.2L229.8 34.8ZM232.2 30.4L232.2 30.4Q233.0 30.4 233.6 30.0Q234.1 29.6 234.4 28.9Q234.7 28.1 234.7 27.2L234.7 27.2Q234.7 26.3 234.4 25.5Q234.1 24.8 233.6 24.4Q233.0 24.0 232.2 24.0L232.2 24.0Q231.4 24.0 230.9 24.4Q230.3 24.8 230.1 25.5Q229.8 26.2 229.8 27.2L229.8 27.2Q229.8 28.2 230.1 28.9Q230.3 29.6 230.9 30.0Q231.4 30.4 232.2 30.4ZM239.0 31.6L239.0 31.6Q238.6 31.6 238.3 31.3Q238.0 31 238.0 30.6L238.0 30.6Q238.0 30.1 238.3 29.8Q238.6 29.5 239.0 29.5L239.0 29.5Q239.5 29.5 239.8 29.8Q240.1 30.1 240.1 30.6L240.1 30.6Q240.1 31 239.8 31.3Q239.5 31.6 239.0 31.6ZM241.4 22.9L245.9 22.9L245.9 24.1L241.4 24.1L241.4 22.9ZM242.7 29.4L242.7 20.8L244.1 20.8L244.1 29.3Q244.1 29.9 244.3 30.1Q244.6 30.4 245.1 30.4L245.1 30.4Q245.3 30.4 245.5 30.3Q245.7 30.3 245.9 30.3L245.9 30.3L246.1 31.5Q245.9 31.5 245.6 31.6Q245.3 31.6 245.1 31.6L245.1 31.6Q243.9 31.6 243.3 31.0Q242.7 30.4 242.7 29.4L242.7 29.4ZM250.5 31.7L250.5 31.7Q249.6 31.7 248.9 31.4Q248.2 31.1 247.8 30.6Q247.3 30.1 247.2 29.3L247.2 29.3L248.5 29.1Q248.7 29.8 249.2 30.1Q249.7 30.5 250.5 30.5L250.5 30.5Q251.4 30.5 252.0 30.1Q252.5 29.7 252.5 29.2L252.5 29.2Q252.5 28.7 252.2 28.4Q251.8 28.1 251.2 28.0L251.2 28.0L249.8 27.6Q248.6 27.4 248.0 26.8Q247.5 26.2 247.5 25.3L247.5 25.3Q247.5 24.5 247.9 24.0Q248.3 23.4 249.0 23.1Q249.7 22.8 250.6 22.8L250.6 22.8Q251.5 22.8 252.2 23.0Q252.8 23.3 253.2 23.8Q253.6 24.3 253.8 25.0L253.8 25.0L252.5 25.2Q252.3 24.7 251.9 24.3Q251.5 23.9 250.6 23.9L250.6 23.9Q249.9 23.9 249.4 24.3Q248.9 24.6 248.9 25.2L248.9 25.2Q248.9 25.7 249.2 26.0Q249.6 26.3 250.3 26.4L250.3 26.4L251.6 26.7Q252.8 27.0 253.4 27.6Q253.9 28.2 253.9 29.1L253.9 29.1Q253.9 29.9 253.5 30.4Q253.1 31.0 252.3 31.4Q251.5 31.7 250.5 31.7ZM256.7 31.5L255.1 31.5L258.6 26.5L258.6 27.6L255.3 22.9L256.9 22.9L258.0 24.6Q258.4 25.2 258.7 25.7Q259.0 26.3 259.4 26.8L259.4 26.8L258.6 26.8Q259.0 26.3 259.3 25.7Q259.6 25.2 260.0 24.6L260.0 24.6L261.1 22.9L262.7 22.9L259.4 27.7L259.4 26.6L262.8 31.5L261.2 31.5L259.9 29.6Q259.5 29.0 259.2 28.4Q258.9 27.9 258.6 27.4L258.6 27.4L259.3 27.4Q259 27.9 258.7 28.4Q258.4 29.0 258.0 29.6L258.0 29.6L256.7 31.5Z "/><path fill="black" d="M267.6 31.7L267.6 31.7Q266.8 31.7 266.1 31.4Q265.5 31.1 265.1 30.5Q264.7 29.9 264.7 29.0L264.7 29.0Q264.7 28.3 265.0 27.8Q265.3 27.4 265.8 27.1Q266.3 26.8 266.8 26.7Q267.4 26.6 268.1 26.5L268.1 26.5Q268.8 26.4 269.3 26.3Q269.8 26.3 270.0 26.2Q270.3 26.0 270.3 25.7L270.3 25.7L270.3 25.6Q270.3 25.1 270.1 24.8Q269.9 24.4 269.4 24.2Q269.0 24.0 268.4 24.0L268.4 24.0Q267.8 24.0 267.4 24.2Q266.9 24.4 266.7 24.7Q266.4 25.0 266.3 25.3L266.3 25.3L264.9 24.9Q265.2 24.2 265.7 23.7Q266.3 23.2 267.0 23.0Q267.7 22.8 268.4 22.8L268.4 22.8Q268.9 22.8 269.5 22.9Q270.0 23.0 270.5 23.3Q271.0 23.6 271.3 24.2Q271.6 24.8 271.6 25.8L271.6 25.8L271.6 31.5L270.3 31.5L270.3 30.3L270.2 30.3Q270.1 30.6 269.7 30.9Q269.4 31.3 268.9 31.5Q268.4 31.7 267.6 31.7ZM267.9 30.5L267.9 30.5Q268.7 30.5 269.2 30.2Q269.7 29.9 270.0 29.4Q270.3 28.9 270.3 28.4L270.3 28.4L270.3 27.2Q270.2 27.3 269.9 27.4Q269.6 27.4 269.3 27.5Q268.9 27.6 268.6 27.6Q268.2 27.6 268.0 27.7L268.0 27.7Q267.5 27.7 267.1 27.9Q266.6 28.0 266.4 28.3Q266.1 28.6 266.1 29.1L266.1 29.1Q266.1 29.5 266.3 29.8Q266.5 30.1 266.9 30.3Q267.3 30.5 267.9 30.5ZM275.4 26.4L275.4 26.4L275.4 31.5L274.0 31.5L274.0 22.9L275.3 22.9L275.4 25.0L275.1 25.0Q275.5 23.8 276.3 23.3Q277.0 22.8 278.0 22.8L278.0 22.8Q278.9 22.8 279.5 23.1Q280.2 23.5 280.6 24.2Q280.9 24.9 280.9 26.0L280.9 26.0L280.9 31.5L279.6 31.5L279.6 26.2Q279.6 25.1 279.0 24.6Q278.5 24.0 277.6 24.0L277.6 24.0Q277.0 24.0 276.5 24.3Q276.0 24.5 275.7 25.1Q275.4 25.6 275.4 26.4ZM286.6 31.7L286.6 31.7Q285.5 31.7 284.6 31.1Q283.8 30.6 283.3 29.6Q282.9 28.6 282.9 27.2L282.9 27.2Q282.9 25.8 283.3 24.8Q283.8 23.8 284.6 23.3Q285.5 22.8 286.6 22.8L286.6 22.8Q287.3 22.8 287.8 23.0Q288.3 23.3 288.6 23.6Q288.9 23.9 289.1 24.2L289.1 24.2L289.2 24.2L289.2 19.9L290.6 19.9L290.6 31.5L289.2 31.5L289.2 30.2L289.1 30.2Q288.9 30.5 288.6 30.8Q288.3 31.2 287.8 31.4Q287.3 31.7 286.6 31.7ZM286.8 30.4L286.8 30.4Q287.5 30.4 288.1 30.0Q288.6 29.6 288.9 28.9Q289.2 28.2 289.2 27.2L289.2 27.2Q289.2 26.2 288.9 25.5Q288.7 24.8 288.1 24.4Q287.6 24.0 286.8 24.0L286.8 24.0Q286.0 24.0 285.4 24.4Q284.9 24.8 284.6 25.5Q284.3 26.3 284.3 27.2L284.3 27.2Q284.3 28.1 284.6 28.9Q284.9 29.6 285.4 30.0Q286.0 30.4 286.8 30.4Z M300.3 31.7L300.3 31.7Q299.4 31.7 298.7 31.4Q298.0 31.1 297.5 30.6Q297.1 30.1 296.9 29.3L296.9 29.3L298.3 29.1Q298.4 29.8 298.9 30.1Q299.5 30.5 300.3 30.5L300.3 30.5Q301.2 30.5 301.7 30.1Q302.2 29.7 302.2 29.2L302.2 29.2Q302.2 28.7 301.9 28.4Q301.6 28.1 301.0 28.0L301.0 28.0L299.5 27.6Q298.3 27.4 297.8 26.8Q297.2 26.2 297.2 25.3L297.2 25.3Q297.2 24.5 297.6 24.0Q298.0 23.4 298.7 23.1Q299.4 22.8 300.4 22.8L300.4 22.8Q301.3 22.8 301.9 23.0Q302.5 23.3 302.9 23.8Q303.3 24.3 303.5 25.0L303.5 25.0L302.2 25.2Q302.1 24.7 301.6 24.3Q301.2 23.9 300.4 23.9L300.4 23.9Q299.6 23.9 299.1 24.3Q298.6 24.6 298.6 25.2L298.6 25.2Q298.6 25.7 298.9 26.0Q299.3 26.3 300.0 26.4L300.0 26.4L301.3 26.7Q302.5 27.0 303.1 27.6Q303.7 28.2 303.7 29.1L303.7 29.1Q303.7 29.9 303.2 30.4Q302.8 31.0 302.0 31.4Q301.3 31.7 300.3 31.7ZM308.0 31.7L308.0 31.7Q307.2 31.7 306.6 31.4Q305.9 31.1 305.5 30.5Q305.1 29.9 305.1 29.0L305.1 29.0Q305.1 28.3 305.4 27.8Q305.7 27.4 306.2 27.1Q306.7 26.8 307.3 26.7Q307.9 26.6 308.5 26.5L308.5 26.5Q309.3 26.4 309.7 26.3Q310.2 26.3 310.4 26.2Q310.7 26.0 310.7 25.7L310.7 25.7L310.7 25.6Q310.7 25.1 310.5 24.8Q310.3 24.4 309.9 24.2Q309.4 24.0 308.8 24.0L308.8 24.0Q308.2 24.0 307.8 24.2Q307.3 24.4 307.1 24.7Q306.8 25.0 306.7 25.3L306.7 25.3L305.3 24.9Q305.6 24.2 306.1 23.7Q306.7 23.2 307.4 23.0Q308.1 22.8 308.8 22.8L308.8 22.8Q309.3 22.8 309.9 22.9Q310.4 23.0 310.9 23.3Q311.4 23.6 311.7 24.2Q312.1 24.8 312.1 25.8L312.1 25.8L312.1 31.5L310.7 31.5L310.7 30.3L310.6 30.3Q310.5 30.6 310.1 30.9Q309.8 31.3 309.3 31.5Q308.8 31.7 308.0 31.7ZM308.3 30.5L308.3 30.5Q309.1 30.5 309.6 30.2Q310.1 29.9 310.4 29.4Q310.7 28.9 310.7 28.4L310.7 28.4L310.7 27.2Q310.6 27.3 310.3 27.4Q310.0 27.4 309.7 27.5Q309.3 27.6 309.0 27.6Q308.6 27.6 308.4 27.7L308.4 27.7Q307.9 27.7 307.5 27.9Q307.0 28.0 306.8 28.3Q306.5 28.6 306.5 29.1L306.5 29.1Q306.5 29.5 306.7 29.8Q307.0 30.1 307.4 30.3Q307.8 30.5 308.3 30.5ZM318.4 31.5L316.9 31.5L313.6 22.9L315.1 22.9L317.0 28.0Q317.3 28.7 317.5 29.5Q317.7 30.2 317.9 30.9L317.9 30.9L317.4 30.9Q317.6 30.2 317.8 29.5Q318.0 28.7 318.3 28.0L318.3 28.0L320.2 22.9L321.7 22.9L318.4 31.5ZM326.8 31.7L326.8 31.7Q325.6 31.7 324.7 31.1Q323.8 30.6 323.3 29.6Q322.8 28.6 322.8 27.2L322.8 27.2Q322.8 25.9 323.3 24.9Q323.8 23.9 324.6 23.3Q325.5 22.8 326.7 22.8L326.7 22.8Q327.4 22.8 328.1 23.0Q328.8 23.2 329.3 23.8Q329.9 24.3 330.2 25.1Q330.5 26.0 330.5 27.1L330.5 27.1L330.5 27.6L323.7 27.6L323.7 26.5L329.7 26.5L329.1 26.9Q329.1 26.0 328.8 25.4Q328.5 24.7 328.0 24.4Q327.5 24.0 326.7 24.0L326.7 24.0Q325.9 24.0 325.4 24.4Q324.8 24.7 324.5 25.4Q324.2 26.0 324.2 26.7L324.2 26.7L324.2 27.5Q324.2 28.4 324.5 29.1Q324.9 29.7 325.4 30.1Q326.0 30.4 326.8 30.4L326.8 30.4Q327.4 30.4 327.8 30.3Q328.2 30.1 328.5 29.8Q328.8 29.5 329.0 29.1L329.0 29.1L330.3 29.4Q330.1 30.1 329.7 30.6Q329.2 31.1 328.5 31.4Q327.7 31.7 326.8 31.7Z M335.8 22.9L340.3 22.9L340.3 24.1L335.8 24.1L335.8 22.9ZM337.1 29.4L337.1 20.8L338.5 20.8L338.5 29.3Q338.5 29.9 338.7 30.1Q338.9 30.4 339.5 30.4L339.5 30.4Q339.6 30.4 339.8 30.3Q340.0 30.3 340.2 30.3L340.2 30.3L340.4 31.5Q340.2 31.5 340.0 31.6Q339.7 31.6 339.4 31.6L339.4 31.6Q338.3 31.6 337.7 31.0Q337.1 30.4 337.1 29.4L337.1 29.4ZM345.5 31.7L345.5 31.7Q344.3 31.7 343.4 31.1Q342.5 30.6 342.0 29.6Q341.5 28.6 341.5 27.2L341.5 27.2Q341.5 25.9 342.0 24.9Q342.5 23.9 343.4 23.3Q344.3 22.8 345.5 22.8L345.5 22.8Q346.7 22.8 347.6 23.3Q348.4 23.9 348.9 24.9Q349.4 25.9 349.4 27.2L349.4 27.2Q349.4 28.6 348.9 29.6Q348.4 30.6 347.6 31.1Q346.7 31.7 345.5 31.7ZM345.5 30.4L345.5 30.4Q346.3 30.4 346.9 30.0Q347.5 29.6 347.8 28.8Q348.0 28.1 348.0 27.2L348.0 27.2Q348.0 26.4 347.8 25.6Q347.5 24.9 346.9 24.4Q346.3 24.0 345.5 24.0L345.5 24.0Q344.6 24.0 344.1 24.4Q343.5 24.9 343.2 25.6Q342.9 26.3 342.9 27.2L342.9 27.2Q342.9 28.1 343.2 28.8Q343.5 29.6 344.1 30.0Q344.6 30.4 345.5 30.4Z M354.7 22.9L359.2 22.9L359.2 24.1L354.7 24.1L354.7 22.9ZM356.1 29.4L356.1 20.8L357.5 20.8L357.5 29.3Q357.5 29.9 357.7 30.1Q357.9 30.4 358.5 30.4L358.5 30.4Q358.6 30.4 358.8 30.3Q359.0 30.3 359.2 30.3L359.2 30.3L359.4 31.5Q359.2 31.5 358.9 31.6Q358.7 31.6 358.4 31.6L358.4 31.6Q357.3 31.6 356.7 31.0Q356.1 30.4 356.1 29.4L356.1 29.4ZM364.6 31.7L364.6 31.7Q363.3 31.7 362.4 31.1Q361.5 30.6 361.0 29.6Q360.5 28.6 360.5 27.2L360.5 27.2Q360.5 25.9 361.0 24.9Q361.5 23.9 362.4 23.3Q363.2 22.8 364.4 22.8L364.4 22.8Q365.1 22.8 365.8 23.0Q366.5 23.2 367.0 23.8Q367.6 24.3 367.9 25.1Q368.2 26.0 368.2 27.1L368.2 27.1L368.2 27.6L361.4 27.6L361.4 26.5L367.4 26.5L366.8 26.9Q366.8 26.0 366.5 25.4Q366.3 24.7 365.7 24.4Q365.2 24.0 364.4 24.0L364.4 24.0Q363.6 24.0 363.1 24.4Q362.5 24.7 362.2 25.4Q361.9 26.0 361.9 26.7L361.9 26.7L361.9 27.5Q361.9 28.4 362.2 29.1Q362.6 29.7 363.2 30.1Q363.8 30.4 364.6 30.4L364.6 30.4Q365.1 30.4 365.5 30.3Q365.9 30.1 366.3 29.8Q366.6 29.5 366.7 29.1L366.7 29.1L368.1 29.4Q367.9 30.1 367.4 30.6Q366.9 31.1 366.2 31.4Q365.5 31.7 364.6 31.7ZM373.1 31.7L373.1 31.7Q372.2 31.7 371.5 31.4Q370.8 31.1 370.3 30.6Q369.9 30.1 369.7 29.3L369.7 29.3L371.0 29.1Q371.2 29.8 371.7 30.1Q372.2 30.5 373.0 30.5L373.0 30.5Q373.9 30.5 374.5 30.1Q375.0 29.7 375.0 29.2L375.0 29.2Q375.0 28.7 374.7 28.4Q374.4 28.1 373.7 28.0L373.7 28.0L372.3 27.6Q371.1 27.4 370.5 26.8Q370.0 26.2 370.0 25.3L370.0 25.3Q370.0 24.5 370.4 24.0Q370.8 23.4 371.5 23.1Q372.2 22.8 373.1 22.8L373.1 22.8Q374.0 22.8 374.7 23.0Q375.3 23.3 375.7 23.8Q376.1 24.3 376.3 25.0L376.3 25.0L375.0 25.2Q374.9 24.7 374.4 24.3Q374.0 23.9 373.2 23.9L373.2 23.9Q372.4 23.9 371.9 24.3Q371.4 24.6 371.4 25.2L371.4 25.2Q371.4 25.7 371.7 26.0Q372.1 26.3 372.8 26.4L372.8 26.4L374.1 26.7Q375.3 27.0 375.9 27.6Q376.4 28.2 376.4 29.1L376.4 29.1Q376.4 29.9 376.0 30.4Q375.6 31.0 374.8 31.4Q374.1 31.7 373.1 31.7ZM377.3 22.9L381.8 22.9L381.8 24.1L377.3 24.1L377.3 22.9ZM378.7 29.4L378.7 20.8L380.1 20.8L380.1 29.3Q380.1 29.9 380.3 30.1Q380.5 30.4 381.1 30.4L381.1 30.4Q381.2 30.4 381.4 30.3Q381.6 30.3 381.8 30.3L381.8 30.3L382.0 31.5Q381.8 31.5 381.5 31.6Q381.3 31.6 381.0 31.6L381.0 31.6Q379.9 31.6 379.3 31.0Q378.7 30.4 378.7 29.4L378.7 29.4Z M389.6 31.5L388.1 31.5L388.1 19.9L389.6 19.9L389.6 24.9L395.7 24.9L395.7 19.9L397.2 19.9L397.2 31.5L395.7 31.5L395.7 26.2L389.6 26.2L389.6 31.5ZM401.3 31.5L399.9 31.5L399.9 19.9L401.9 19.9L404.8 27.2Q404.9 27.5 405.1 27.9Q405.2 28.3 405.3 28.7Q405.5 29.1 405.6 29.6Q405.8 30 405.8 30.4L405.8 30.4L405.5 30.4Q405.6 30.0 405.8 29.6Q405.9 29.2 406.0 28.7Q406.2 28.3 406.3 27.9Q406.4 27.5 406.5 27.2L406.5 27.2L409.4 19.9L411.5 19.9L411.5 31.5L410.0 31.5L410.0 24.8Q410.0 24.5 410.0 24.0Q410.0 23.6 410.0 23.1Q410.0 22.6 410.1 22.1Q410.1 21.5 410.1 21.1L410.1 21.1L410.2 21.1Q410.1 21.6 409.9 22.2Q409.7 22.7 409.5 23.2Q409.3 23.7 409.2 24.1Q409.0 24.5 408.9 24.8L408.9 24.8L406.3 31.5L405.0 31.5L402.4 24.8Q402.3 24.6 402.1 24.1Q402.0 23.7 401.8 23.2Q401.6 22.7 401.4 22.2Q401.2 21.6 401.0 21.1L401.0 21.1L401.2 21.1Q401.2 21.5 401.2 22.0Q401.3 22.5 401.3 23.0Q401.3 23.5 401.3 24.0Q401.3 24.4 401.3 24.8L401.3 24.8L401.3 31.5ZM415.6 31.5L414.2 31.5L414.2 19.9L418.2 19.9Q419.5 19.9 420.4 20.3Q421.3 20.8 421.8 21.6Q422.2 22.4 422.2 23.4L422.2 23.4Q422.2 24.5 421.7 25.3Q421.3 26.1 420.4 26.5Q419.5 27.0 418.2 27.0L418.2 27.0L415.0 27.0L415.0 25.7L418.2 25.7Q419.1 25.7 419.6 25.4Q420.2 25.1 420.5 24.6Q420.7 24.1 420.7 23.4L420.7 23.4Q420.7 22.7 420.5 22.2Q420.2 21.7 419.6 21.4Q419.1 21.1 418.1 21.1L418.1 21.1L415.6 21.1L415.6 31.5ZM422.6 31.5L420.9 31.5L418.1 26.3L419.7 26.3L422.6 31.5Z "/><mask id="satori_om-id-2"><rect x="424" y="16" width="349" height="19" fill="#fff"/></mask><path fill="black" d="M430.1 31.7L430.1 31.7Q428.6 31.7 427.4 30.9Q426.2 30.2 425.6 28.9Q424.9 27.5 424.9 25.7L424.9 25.7Q424.9 23.9 425.6 22.5Q426.2 21.2 427.4 20.4Q428.6 19.7 430.1 19.7L430.1 19.7Q431 19.7 431.8 20.0Q432.6 20.2 433.2 20.7Q433.8 21.2 434.3 21.9Q434.7 22.6 434.8 23.5L434.8 23.5L433.4 23.5Q433.2 22.9 432.9 22.5Q432.6 22.0 432.2 21.7Q431.8 21.4 431.2 21.2Q430.7 21.1 430.1 21.1L430.1 21.1Q429.0 21.1 428.2 21.6Q427.3 22.1 426.8 23.2Q426.3 24.2 426.3 25.7L426.3 25.7Q426.3 27.1 426.8 28.2Q427.3 29.2 428.2 29.8Q429.0 30.3 430.1 30.3L430.1 30.3Q430.7 30.3 431.2 30.1Q431.8 30.0 432.2 29.7Q432.6 29.3 432.9 28.9Q433.2 28.4 433.4 27.8L433.4 27.8L434.8 27.8Q434.7 28.7 434.3 29.4Q433.8 30.1 433.2 30.6Q432.6 31.1 431.8 31.4Q431.0 31.7 430.1 31.7ZM436.8 19.9L438.2 19.9L438.2 31.5L436.8 31.5L436.8 19.9ZM442.0 31.5L440.6 31.5L440.6 22.9L442.0 22.9L442.0 31.5ZM441.3 21.4L441.3 21.4Q440.9 21.4 440.6 21.1Q440.3 20.9 440.3 20.5L440.3 20.5Q440.3 20.1 440.6 19.8Q440.9 19.6 441.3 19.6L441.3 19.6Q441.7 19.6 442.0 19.8Q442.3 20.1 442.3 20.5L442.3 20.5Q442.3 20.9 442.0 21.1Q441.7 21.4 441.3 21.4ZM447.9 31.7L447.9 31.7Q446.7 31.7 445.8 31.1Q444.9 30.6 444.4 29.6Q443.9 28.6 443.9 27.2L443.9 27.2Q443.9 25.9 444.4 24.9Q444.9 23.9 445.8 23.3Q446.7 22.8 447.9 22.8L447.9 22.8Q448.5 22.8 449.1 22.9Q449.6 23.1 450.1 23.4Q450.6 23.8 450.9 24.2Q451.2 24.7 451.4 25.3L451.4 25.3L450.0 25.6Q449.9 25.2 449.8 24.9Q449.6 24.6 449.3 24.4Q449.0 24.2 448.7 24.1Q448.3 24.0 447.9 24.0L447.9 24.0Q447.0 24.0 446.4 24.4Q445.9 24.9 445.6 25.6Q445.3 26.3 445.3 27.2L445.3 27.2Q445.3 28.1 445.6 28.8Q445.9 29.6 446.4 30.0Q447 30.4 447.9 30.4L447.9 30.4Q448.3 30.4 448.7 30.3Q449.0 30.2 449.3 30.0Q449.6 29.8 449.8 29.5Q450.0 29.2 450.1 28.8L450.1 28.8L451.4 29.1Q451.3 29.7 450.9 30.2Q450.6 30.6 450.1 31.0Q449.7 31.3 449.1 31.5Q448.5 31.7 447.9 31.7ZM456.1 27.0L454.6 28.4L454.6 26.7L454.8 26.7L458.6 22.9L460.3 22.9L456.3 27.0L456.1 27.0ZM454.7 31.5L453.3 31.5L453.3 19.9L454.7 19.9L454.7 31.5ZM460.6 31.5L458.8 31.5L455.5 27.3L456.5 26.3L460.6 31.5Z M469.9 31.7L469.9 31.7Q468.7 31.7 467.8 31.1Q466.9 30.6 466.4 29.6Q465.9 28.6 465.9 27.2L465.9 27.2Q465.9 25.9 466.4 24.9Q466.9 23.9 467.8 23.3Q468.7 22.8 469.9 22.8L469.9 22.8Q471.0 22.8 471.9 23.3Q472.8 23.9 473.3 24.9Q473.8 25.9 473.8 27.2L473.8 27.2Q473.8 28.6 473.3 29.6Q472.8 30.6 471.9 31.1Q471.0 31.7 469.9 31.7ZM469.9 30.4L469.9 30.4Q470.7 30.4 471.3 30.0Q471.8 29.6 472.1 28.8Q472.4 28.1 472.4 27.2L472.4 27.2Q472.4 26.4 472.1 25.6Q471.8 24.9 471.3 24.4Q470.7 24.0 469.9 24.0L469.9 24.0Q469 24.0 468.4 24.4Q467.9 24.9 467.6 25.6Q467.3 26.3 467.3 27.2L467.3 27.2Q467.3 28.1 467.6 28.8Q467.9 29.6 468.4 30.0Q469.0 30.4 469.9 30.4ZM477.1 26.4L477.1 26.4L477.1 31.5L475.7 31.5L475.7 22.9L477.1 22.9L477.1 25.0L476.9 25.0Q477.3 23.8 478.0 23.3Q478.7 22.8 479.7 22.8L479.7 22.8Q480.6 22.8 481.3 23.1Q481.9 23.5 482.3 24.2Q482.7 24.9 482.7 26.0L482.7 26.0L482.7 31.5L481.3 31.5L481.3 26.2Q481.3 25.1 480.8 24.6Q480.2 24.0 479.3 24.0L479.3 24.0Q478.7 24.0 478.2 24.3Q477.7 24.5 477.4 25.1Q477.1 25.6 477.1 26.4Z M488.4 22.9L492.9 22.9L492.9 24.1L488.4 24.1L488.4 22.9ZM489.7 29.4L489.7 20.8L491.1 20.8L491.1 29.3Q491.1 29.9 491.4 30.1Q491.6 30.4 492.1 30.4L492.1 30.4Q492.3 30.4 492.5 30.3Q492.7 30.3 492.9 30.3L492.9 30.3L493.1 31.5Q492.9 31.5 492.6 31.6Q492.3 31.6 492.1 31.6L492.1 31.6Q491.0 31.6 490.4 31.0Q489.7 30.4 489.7 29.4L489.7 29.4ZM496 26.4L496 26.4L496 31.5L494.6 31.5L494.6 19.9L496 19.9L496 25.0L495.7 25.0Q496.1 23.8 496.9 23.3Q497.6 22.8 498.6 22.8L498.6 22.8Q499.5 22.8 500.1 23.1Q500.8 23.5 501.2 24.2Q501.6 24.9 501.6 26.0L501.6 26.0L501.6 31.5L500.2 31.5L500.2 26.2Q500.2 25.1 499.6 24.6Q499.1 24.0 498.2 24.0L498.2 24.0Q497.6 24.0 497.1 24.3Q496.6 24.5 496.3 25.1Q496 25.6 496 26.4ZM507.5 31.7L507.5 31.7Q506.3 31.7 505.4 31.1Q504.5 30.6 504.0 29.6Q503.5 28.6 503.5 27.2L503.5 27.2Q503.5 25.9 504.0 24.9Q504.5 23.9 505.3 23.3Q506.2 22.8 507.4 22.8L507.4 22.8Q508.1 22.8 508.8 23.0Q509.5 23.2 510.0 23.8Q510.5 24.3 510.9 25.1Q511.2 26.0 511.2 27.1L511.2 27.1L511.2 27.6L504.4 27.6L504.4 26.5L510.4 26.5L509.8 26.9Q509.8 26.0 509.5 25.4Q509.2 24.7 508.7 24.4Q508.2 24.0 507.4 24.0L507.4 24.0Q506.6 24.0 506.0 24.4Q505.5 24.7 505.2 25.4Q504.9 26.0 504.9 26.7L504.9 26.7L504.9 27.5Q504.9 28.4 505.2 29.1Q505.5 29.7 506.1 30.1Q506.7 30.4 507.5 30.4L507.5 30.4Q508.1 30.4 508.5 30.3Q508.9 30.1 509.2 29.8Q509.5 29.5 509.7 29.1L509.7 29.1L511.0 29.4Q510.8 30.1 510.4 30.6Q509.9 31.1 509.1 31.4Q508.4 31.7 507.5 31.7Z M522.6 31.5L520.9 31.5L516.6 19.9L518.2 19.9L520.7 26.8Q520.9 27.4 521.2 28.4Q521.5 29.3 521.9 30.8L521.9 30.8L521.6 30.8Q522.1 29.3 522.4 28.3Q522.7 27.4 522.9 26.8L522.9 26.8L525.3 19.9L526.8 19.9L522.6 31.5ZM529.8 31.5L528.4 31.5L528.4 22.9L529.8 22.9L529.8 31.5ZM529.1 21.4L529.1 21.4Q528.7 21.4 528.4 21.1Q528.1 20.9 528.1 20.5L528.1 20.5Q528.1 20.1 528.4 19.8Q528.7 19.6 529.1 19.6L529.1 19.6Q529.5 19.6 529.8 19.8Q530.0 20.1 530.0 20.5L530.0 20.5Q530.0 20.9 529.8 21.1Q529.5 21.4 529.1 21.4ZM531.1 22.9L535.6 22.9L535.6 24.1L531.1 24.1L531.1 22.9ZM532.4 29.4L532.4 20.8L533.8 20.8L533.8 29.3Q533.8 29.9 534.1 30.1Q534.3 30.4 534.8 30.4L534.8 30.4Q535.0 30.4 535.2 30.3Q535.4 30.3 535.6 30.3L535.6 30.3L535.8 31.5Q535.6 31.5 535.3 31.6Q535.0 31.6 534.8 31.6L534.8 31.6Q533.7 31.6 533.0 31.0Q532.4 30.4 532.4 29.4L532.4 29.4ZM540.9 31.7L540.9 31.7Q539.7 31.7 538.8 31.1Q537.9 30.6 537.4 29.6Q536.9 28.6 536.9 27.2L536.9 27.2Q536.9 25.9 537.4 24.9Q537.8 23.9 538.7 23.3Q539.6 22.8 540.8 22.8L540.8 22.8Q541.5 22.8 542.2 23.0Q542.9 23.2 543.4 23.8Q543.9 24.3 544.3 25.1Q544.6 26.0 544.6 27.1L544.6 27.1L544.6 27.6L537.8 27.6L537.8 26.5L543.8 26.5L543.2 26.9Q543.2 26.0 542.9 25.4Q542.6 24.7 542.1 24.4Q541.5 24.0 540.8 24.0L540.8 24.0Q540.0 24.0 539.4 24.4Q538.9 24.7 538.6 25.4Q538.3 26.0 538.3 26.7L538.3 26.7L538.3 27.5Q538.3 28.4 538.6 29.1Q538.9 29.7 539.5 30.1Q540.1 30.4 540.9 30.4L540.9 30.4Q541.5 30.4 541.9 30.3Q542.3 30.1 542.6 29.8Q542.9 29.5 543.1 29.1L543.1 29.1L544.4 29.4Q544.2 30.1 543.7 30.6Q543.3 31.1 542.5 31.4Q541.8 31.7 540.9 31.7Z M553.3 31.7L553.3 31.7Q552.5 31.7 551.8 31.4Q551.2 31.1 550.8 30.5Q550.4 29.9 550.4 29.0L550.4 29.0Q550.4 28.3 550.7 27.8Q551.0 27.4 551.4 27.1Q551.9 26.8 552.5 26.7Q553.1 26.6 553.7 26.5L553.7 26.5Q554.5 26.4 555.0 26.3Q555.5 26.3 555.7 26.2Q555.9 26.0 555.9 25.7L555.9 25.7L555.9 25.6Q555.9 25.1 555.7 24.8Q555.5 24.4 555.1 24.2Q554.7 24.0 554.1 24.0L554.1 24.0Q553.5 24.0 553.1 24.2Q552.6 24.4 552.3 24.7Q552.1 25.0 552.0 25.3L552.0 25.3L550.6 24.9Q550.9 24.2 551.4 23.7Q551.9 23.2 552.6 23.0Q553.3 22.8 554.1 22.8L554.1 22.8Q554.6 22.8 555.1 22.9Q555.7 23.0 556.2 23.3Q556.7 23.6 557.0 24.2Q557.3 24.8 557.3 25.8L557.3 25.8L557.3 31.5L556.0 31.5L556.0 30.3L555.9 30.3Q555.7 30.6 555.4 30.9Q555.1 31.3 554.6 31.5Q554.1 31.7 553.3 31.7ZM553.5 30.5L553.5 30.5Q554.3 30.5 554.9 30.2Q555.4 29.9 555.7 29.4Q555.9 28.9 555.9 28.4L555.9 28.4L555.9 27.2Q555.9 27.3 555.6 27.4Q555.3 27.4 555.0 27.5Q554.6 27.6 554.3 27.6Q553.9 27.6 553.7 27.7L553.7 27.7Q553.2 27.7 552.7 27.9Q552.3 28.0 552.0 28.3Q551.8 28.6 551.8 29.1L551.8 29.1Q551.8 29.5 552.0 29.8Q552.2 30.1 552.6 30.3Q553.0 30.5 553.5 30.5ZM561.1 26.4L561.1 26.4L561.1 31.5L559.7 31.5L559.7 22.9L561.0 22.9L561.0 25.0L560.8 25.0Q561.2 23.8 561.9 23.3Q562.7 22.8 563.7 22.8L563.7 22.8Q564.5 22.8 565.2 23.1Q565.9 23.5 566.2 24.2Q566.6 24.9 566.6 26.0L566.6 26.0L566.6 31.5L565.2 31.5L565.2 26.2Q565.2 25.1 564.7 24.6Q564.2 24.0 563.3 24.0L563.3 24.0Q562.6 24.0 562.2 24.3Q561.7 24.5 561.4 25.1Q561.1 25.6 561.1 26.4ZM572.2 31.7L572.2 31.7Q571.1 31.7 570.3 31.1Q569.5 30.6 569.0 29.6Q568.6 28.6 568.6 27.2L568.6 27.2Q568.6 25.8 569.0 24.8Q569.5 23.8 570.3 23.3Q571.2 22.8 572.2 22.8L572.2 22.8Q573.0 22.8 573.5 23.0Q574.0 23.3 574.3 23.6Q574.6 23.9 574.8 24.2L574.8 24.2L574.9 24.2L574.9 19.9L576.3 19.9L576.3 31.5L574.9 31.5L574.9 30.2L574.8 30.2Q574.6 30.5 574.3 30.8Q574 31.2 573.5 31.4Q573 31.7 572.2 31.7ZM572.4 30.4L572.4 30.4Q573.2 30.4 573.8 30.0Q574.3 29.6 574.6 28.9Q574.9 28.2 574.9 27.2L574.9 27.2Q574.9 26.2 574.6 25.5Q574.3 24.8 573.8 24.4Q573.2 24.0 572.4 24.0L572.4 24.0Q571.6 24.0 571.1 24.4Q570.5 24.8 570.3 25.5Q570.0 26.3 570.0 27.2L570.0 27.2Q570.0 28.1 570.3 28.9Q570.5 29.6 571.1 30.0Q571.6 30.4 572.4 30.4Z M584.6 31.5L583.2 31.5L583.2 19.9L587.2 19.9Q588.6 19.9 589.4 20.3Q590.3 20.8 590.8 21.6Q591.2 22.4 591.2 23.4L591.2 23.4Q591.2 24.5 590.8 25.3Q590.3 26.1 589.4 26.5Q588.5 27.0 587.2 27.0L587.2 27.0L584 27.0L584 25.7L587.2 25.7Q588.1 25.7 588.6 25.4Q589.2 25.1 589.5 24.6Q589.7 24.1 589.7 23.4L589.7 23.4Q589.7 22.7 589.5 22.2Q589.2 21.7 588.6 21.4Q588.1 21.1 587.2 21.1L587.2 21.1L584.6 21.1L584.6 31.5ZM591.6 31.5L589.9 31.5L587.1 26.3L588.7 26.3L591.6 31.5ZM596.9 31.7L596.9 31.7Q595.6 31.7 594.7 31.1Q593.8 30.6 593.3 29.6Q592.8 28.6 592.8 27.2L592.8 27.2Q592.8 25.9 593.3 24.9Q593.8 23.9 594.7 23.3Q595.6 22.8 596.7 22.8L596.7 22.8Q597.5 22.8 598.1 23.0Q598.8 23.2 599.4 23.8Q599.9 24.3 600.2 25.1Q600.5 26.0 600.5 27.1L600.5 27.1L600.5 27.6L593.7 27.6L593.7 26.5L599.8 26.5L599.1 26.9Q599.1 26.0 598.9 25.4Q598.6 24.7 598.0 24.4Q597.5 24.0 596.7 24.0L596.7 24.0Q596.0 24.0 595.4 24.4Q594.8 24.7 594.5 25.4Q594.2 26.0 594.2 26.7L594.2 26.7L594.2 27.5Q594.2 28.4 594.6 29.1Q594.9 29.7 595.5 30.1Q596.1 30.4 596.9 30.4L596.9 30.4Q597.4 30.4 597.8 30.3Q598.3 30.1 598.6 29.8Q598.9 29.5 599.0 29.1L599.0 29.1L600.4 29.4Q600.2 30.1 599.7 30.6Q599.2 31.1 598.5 31.4Q597.8 31.7 596.9 31.7ZM604.9 31.7L604.9 31.7Q604.1 31.7 603.4 31.4Q602.7 31.1 602.3 30.5Q601.9 29.9 601.9 29.0L601.9 29.0Q601.9 28.3 602.2 27.8Q602.5 27.4 603.0 27.1Q603.5 26.8 604.1 26.7Q604.7 26.6 605.3 26.5L605.3 26.5Q606.1 26.4 606.6 26.3Q607.1 26.3 607.3 26.2Q607.5 26.0 607.5 25.7L607.5 25.7L607.5 25.6Q607.5 25.1 607.3 24.8Q607.1 24.4 606.7 24.2Q606.3 24.0 605.7 24.0L605.7 24.0Q605.1 24.0 604.6 24.2Q604.2 24.4 603.9 24.7Q603.6 25.0 603.5 25.3L603.5 25.3L602.2 24.9Q602.4 24.2 603.0 23.7Q603.5 23.2 604.2 23.0Q604.9 22.8 605.7 22.8L605.7 22.8Q606.2 22.8 606.7 22.9Q607.3 23.0 607.8 23.3Q608.3 23.6 608.6 24.2Q608.9 24.8 608.9 25.8L608.9 25.8L608.9 31.5L607.5 31.5L607.5 30.3L607.5 30.3Q607.3 30.6 607.0 30.9Q606.7 31.3 606.1 31.5Q605.6 31.7 604.9 31.7ZM605.1 30.5L605.1 30.5Q605.9 30.5 606.4 30.2Q607.0 29.9 607.2 29.4Q607.5 28.9 607.5 28.4L607.5 28.4L607.5 27.2Q607.4 27.3 607.2 27.4Q606.9 27.4 606.5 27.5Q606.2 27.6 605.8 27.6Q605.5 27.6 605.2 27.7L605.2 27.7Q604.7 27.7 604.3 27.9Q603.9 28.0 603.6 28.3Q603.3 28.6 603.3 29.1L603.3 29.1Q603.3 29.5 603.6 29.8Q603.8 30.1 604.2 30.3Q604.6 30.5 605.1 30.5ZM614.8 31.7L614.8 31.7Q613.6 31.7 612.7 31.1Q611.8 30.6 611.3 29.6Q610.8 28.6 610.8 27.2L610.8 27.2Q610.8 25.9 611.3 24.9Q611.8 23.9 612.7 23.3Q613.6 22.8 614.8 22.8L614.8 22.8Q615.4 22.8 616 22.9Q616.6 23.1 617.0 23.4Q617.5 23.8 617.8 24.2Q618.1 24.7 618.3 25.3L618.3 25.3L617.0 25.6Q616.9 25.2 616.7 24.9Q616.5 24.6 616.2 24.4Q615.9 24.2 615.6 24.1Q615.2 24.0 614.8 24.0L614.8 24.0Q613.9 24.0 613.4 24.4Q612.8 24.9 612.5 25.6Q612.2 26.3 612.2 27.2L612.2 27.2Q612.2 28.1 612.5 28.8Q612.8 29.6 613.4 30.0Q613.9 30.4 614.8 30.4L614.8 30.4Q615.2 30.4 615.6 30.3Q615.9 30.2 616.2 30.0Q616.5 29.8 616.7 29.5Q616.9 29.2 617.0 28.8L617.0 28.8L618.3 29.1Q618.2 29.7 617.8 30.2Q617.5 30.6 617.1 31.0Q616.6 31.3 616.0 31.5Q615.4 31.7 614.8 31.7ZM619.2 22.9L623.7 22.9L623.7 24.1L619.2 24.1L619.2 22.9ZM620.5 29.4L620.5 20.8L621.9 20.8L621.9 29.3Q621.9 29.9 622.2 30.1Q622.4 30.4 622.9 30.4L622.9 30.4Q623.1 30.4 623.3 30.3Q623.5 30.3 623.7 30.3L623.7 30.3L623.9 31.5Q623.7 31.5 623.4 31.6Q623.1 31.6 622.9 31.6L622.9 31.6Q621.8 31.6 621.1 31.0Q620.5 30.4 620.5 29.4L620.5 29.4Z M629.8 19.9L631.2 19.9L631.2 31.5L629.8 31.5L629.8 19.9ZM637.1 31.7L637.1 31.7Q635.9 31.7 635.0 31.1Q634.1 30.6 633.6 29.6Q633.1 28.6 633.1 27.2L633.1 27.2Q633.1 25.9 633.6 24.9Q634.1 23.9 635.0 23.3Q635.9 22.8 637.1 22.8L637.1 22.8Q638.3 22.8 639.1 23.3Q640.0 23.9 640.5 24.9Q641.0 25.9 641.0 27.2L641.0 27.2Q641.0 28.6 640.5 29.6Q640.0 30.6 639.1 31.1Q638.3 31.7 637.1 31.7ZM637.1 30.4L637.1 30.4Q637.9 30.4 638.5 30.0Q639.1 29.6 639.3 28.8Q639.6 28.1 639.6 27.2L639.6 27.2Q639.6 26.4 639.3 25.6Q639.1 24.9 638.5 24.4Q637.9 24.0 637.1 24.0L637.1 24.0Q636.2 24.0 635.7 24.4Q635.1 24.9 634.8 25.6Q634.5 26.3 634.5 27.2L634.5 27.2Q634.5 28.1 634.8 28.8Q635.1 29.6 635.7 30.0Q636.2 30.4 637.1 30.4ZM646.5 34.9L646.5 34.9Q645.5 34.9 644.8 34.7Q644.1 34.4 643.6 34.0Q643.1 33.5 642.9 33.0L642.9 33.0L644.1 32.4Q644.3 32.7 644.6 33.0Q644.8 33.3 645.3 33.5Q645.8 33.7 646.5 33.7L646.5 33.7Q647.5 33.7 648.2 33.2Q648.9 32.7 648.9 31.6L648.9 31.6L648.9 30.0L648.8 30.0Q648.6 30.3 648.3 30.6Q648.0 31.0 647.5 31.2Q647.0 31.4 646.2 31.4L646.2 31.4Q645.1 31.4 644.3 30.9Q643.5 30.4 643.0 29.5Q642.5 28.5 642.5 27.2L642.5 27.2Q642.5 25.8 643.0 24.8Q643.5 23.8 644.3 23.3Q645.1 22.8 646.2 22.8L646.2 22.8Q647 22.8 647.5 23Q648 23.3 648.3 23.6Q648.6 24.0 648.8 24.3L648.8 24.3L648.9 24.3L648.9 22.9L650.2 22.9L650.2 31.7Q650.2 32.8 649.7 33.5Q649.2 34.3 648.4 34.6Q647.5 34.9 646.5 34.9ZM646.4 30.2L646.4 30.2Q647.2 30.2 647.8 29.8Q648.3 29.5 648.6 28.8Q648.9 28.1 648.9 27.1L648.9 27.1Q648.9 26.2 648.6 25.5Q648.3 24.8 647.8 24.4Q647.2 24.0 646.4 24.0L646.4 24.0Q645.6 24.0 645.1 24.4Q644.5 24.8 644.2 25.5Q643.9 26.2 643.9 27.1L643.9 27.1Q643.9 28.1 644.2 28.7Q644.5 29.4 645.1 29.8Q645.6 30.2 646.4 30.2ZM656.1 31.7L656.1 31.7Q654.9 31.7 654.1 31.1Q653.2 30.6 652.7 29.6Q652.2 28.6 652.2 27.2L652.2 27.2Q652.2 25.9 652.7 24.9Q653.2 23.9 654.1 23.3Q654.9 22.8 656.1 22.8L656.1 22.8Q657.3 22.8 658.2 23.3Q659.1 23.9 659.6 24.9Q660.1 25.9 660.1 27.2L660.1 27.2Q660.1 28.6 659.6 29.6Q659.1 30.6 658.2 31.1Q657.3 31.7 656.1 31.7ZM656.1 30.4L656.1 30.4Q657.0 30.4 657.6 30.0Q658.1 29.6 658.4 28.8Q658.7 28.1 658.7 27.2L658.7 27.2Q658.7 26.4 658.4 25.6Q658.1 24.9 657.6 24.4Q657.0 24.0 656.1 24.0L656.1 24.0Q655.3 24.0 654.7 24.4Q654.1 24.9 653.9 25.6Q653.6 26.3 653.6 27.2L653.6 27.2Q653.6 28.1 653.9 28.8Q654.1 29.6 654.7 30.0Q655.3 30.4 656.1 30.4ZM665.0 31.7L665.0 31.7Q664.1 31.7 663.4 31.4Q662.7 31.1 662.2 30.6Q661.8 30.1 661.6 29.3L661.6 29.3L663.0 29.1Q663.1 29.8 663.6 30.1Q664.1 30.5 664.9 30.5L664.9 30.5Q665.8 30.5 666.4 30.1Q666.9 29.7 666.9 29.2L666.9 29.2Q666.9 28.7 666.6 28.4Q666.3 28.1 665.6 28.0L665.6 28.0L664.2 27.6Q663.0 27.4 662.5 26.8Q661.9 26.2 661.9 25.3L661.9 25.3Q661.9 24.5 662.3 24.0Q662.7 23.4 663.4 23.1Q664.1 22.8 665.1 22.8L665.1 22.8Q665.9 22.8 666.6 23.0Q667.2 23.3 667.6 23.8Q668.0 24.3 668.2 25.0L668.2 25.0L666.9 25.2Q666.8 24.7 666.3 24.3Q665.9 23.9 665.1 23.9L665.1 23.9Q664.3 23.9 663.8 24.3Q663.3 24.6 663.3 25.2L663.3 25.2Q663.3 25.7 663.6 26.0Q664.0 26.3 664.7 26.4L664.7 26.4L666.0 26.7Q667.2 27.0 667.8 27.6Q668.3 28.2 668.3 29.1L668.3 29.1Q668.3 29.9 667.9 30.4Q667.5 31.0 666.7 31.4Q666.0 31.7 665.0 31.7Z M673.6 22.9L678.1 22.9L678.1 24.1L673.6 24.1L673.6 22.9ZM675.0 29.4L675.0 20.8L676.4 20.8L676.4 29.3Q676.4 29.9 676.6 30.1Q676.8 30.4 677.4 30.4L677.4 30.4Q677.5 30.4 677.7 30.3Q677.9 30.3 678.1 30.3L678.1 30.3L678.3 31.5Q678.1 31.5 677.8 31.6Q677.6 31.6 677.3 31.6L677.3 31.6Q676.2 31.6 675.6 31.0Q675.0 30.4 675.0 29.4L675.0 29.4ZM683.4 31.7L683.4 31.7Q682.2 31.7 681.3 31.1Q680.4 30.6 679.9 29.6Q679.4 28.6 679.4 27.2L679.4 27.2Q679.4 25.9 679.9 24.9Q680.4 23.9 681.3 23.3Q682.2 22.8 683.4 22.8L683.4 22.8Q684.5 22.8 685.4 23.3Q686.3 23.9 686.8 24.9Q687.3 25.9 687.3 27.2L687.3 27.2Q687.3 28.6 686.8 29.6Q686.3 30.6 685.4 31.1Q684.5 31.7 683.4 31.7ZM683.4 30.4L683.4 30.4Q684.2 30.4 684.8 30.0Q685.4 29.6 685.6 28.8Q685.9 28.1 685.9 27.2L685.9 27.2Q685.9 26.4 685.6 25.6Q685.4 24.9 684.8 24.4Q684.2 24.0 683.4 24.0L683.4 24.0Q682.5 24.0 682.0 24.4Q681.4 24.9 681.1 25.6Q680.8 26.3 680.8 27.2L680.8 27.2Q680.8 28.1 681.1 28.8Q681.4 29.6 681.9 30.0Q682.5 30.4 683.4 30.4Z M693.6 19.9L695.0 19.9L695.0 31.5L693.6 31.5L693.6 19.9ZM701.0 31.7L701.0 31.7Q699.8 31.7 698.9 31.1Q697.9 30.6 697.5 29.6Q697.0 28.6 697.0 27.2L697.0 27.2Q697.0 25.9 697.5 24.9Q697.9 23.9 698.8 23.3Q699.7 22.8 700.9 22.8L700.9 22.8Q701.6 22.8 702.3 23.0Q703.0 23.2 703.5 23.8Q704.0 24.3 704.3 25.1Q704.7 26.0 704.7 27.1L704.7 27.1L704.7 27.6L697.9 27.6L697.9 26.5L703.9 26.5L703.3 26.9Q703.3 26.0 703.0 25.4Q702.7 24.7 702.2 24.4Q701.6 24.0 700.9 24.0L700.9 24.0Q700.1 24.0 699.5 24.4Q699.0 24.7 698.7 25.4Q698.4 26.0 698.4 26.7L698.4 26.7L698.4 27.5Q698.4 28.4 698.7 29.1Q699.0 29.7 699.6 30.1Q700.2 30.4 701.0 30.4L701.0 30.4Q701.5 30.4 702.0 30.3Q702.4 30.1 702.7 29.8Q703.0 29.5 703.2 29.1L703.2 29.1L704.5 29.4Q704.3 30.1 703.8 30.6Q703.4 31.1 702.6 31.4Q701.9 31.7 701.0 31.7ZM709.0 31.7L709.0 31.7Q708.2 31.7 707.5 31.4Q706.9 31.1 706.5 30.5Q706.1 29.9 706.1 29.0L706.1 29.0Q706.1 28.3 706.4 27.8Q706.7 27.4 707.1 27.1Q707.6 26.8 708.2 26.7Q708.8 26.6 709.4 26.5L709.4 26.5Q710.2 26.4 710.7 26.3Q711.2 26.3 711.4 26.2Q711.6 26.0 711.6 25.7L711.6 25.7L711.6 25.6Q711.6 25.1 711.4 24.8Q711.2 24.4 710.8 24.2Q710.4 24.0 709.8 24.0L709.8 24.0Q709.2 24.0 708.8 24.2Q708.3 24.4 708.0 24.7Q707.8 25.0 707.7 25.3L707.7 25.3L706.3 24.9Q706.6 24.2 707.1 23.7Q707.6 23.2 708.3 23.0Q709.0 22.8 709.8 22.8L709.8 22.8Q710.3 22.8 710.9 22.9Q711.4 23.0 711.9 23.3Q712.4 23.6 712.7 24.2Q713.0 24.8 713.0 25.8L713.0 25.8L713.0 31.5L711.7 31.5L711.7 30.3L711.6 30.3Q711.4 30.6 711.1 30.9Q710.8 31.3 710.3 31.5Q709.8 31.7 709.0 31.7ZM709.3 30.5L709.3 30.5Q710.0 30.5 710.6 30.2Q711.1 29.9 711.4 29.4Q711.6 28.9 711.6 28.4L711.6 28.4L711.6 27.2Q711.6 27.3 711.3 27.4Q711.0 27.4 710.7 27.5Q710.3 27.6 710.0 27.6Q709.6 27.6 709.4 27.7L709.4 27.7Q708.9 27.7 708.4 27.9Q708 28.0 707.7 28.3Q707.5 28.6 707.5 29.1L707.5 29.1Q707.5 29.5 707.7 29.8Q707.9 30.1 708.3 30.3Q708.7 30.5 709.3 30.5ZM716.8 31.5L715.4 31.5L715.4 22.9L716.7 22.9L716.7 24.2L716.8 24.2Q717.0 23.5 717.6 23.1Q718.2 22.8 719.0 22.8L719.0 22.8Q719.2 22.8 719.4 22.8Q719.6 22.8 719.7 22.8L719.7 22.8L719.7 24.2Q719.6 24.2 719.4 24.1Q719.1 24.1 718.9 24.1L718.9 24.1Q718.3 24.1 717.8 24.3Q717.3 24.6 717.1 25.0Q716.8 25.5 716.8 26.1L716.8 26.1L716.8 31.5ZM722.6 26.4L722.6 26.4L722.6 31.5L721.2 31.5L721.2 22.9L722.6 22.9L722.6 25.0L722.3 25.0Q722.7 23.8 723.5 23.3Q724.2 22.8 725.2 22.8L725.2 22.8Q726.1 22.8 726.7 23.1Q727.4 23.5 727.8 24.2Q728.2 24.9 728.2 26.0L728.2 26.0L728.2 31.5L726.8 31.5L726.8 26.2Q726.8 25.1 726.2 24.6Q725.7 24.0 724.8 24.0L724.8 24.0Q724.2 24.0 723.7 24.3Q723.2 24.5 722.9 25.1Q722.6 25.6 722.6 26.4Z M736.3 31.5L734.9 31.5L734.9 22.9L736.3 22.9L736.3 24.8L736.1 24.8Q736.3 24.1 736.7 23.6Q737.1 23.2 737.6 22.9Q738.1 22.7 738.7 22.7L738.7 22.7Q739.7 22.7 740.3 23.3Q740.9 23.9 741.1 24.8L741.1 24.8L740.8 24.8Q741.0 24.2 741.4 23.7Q741.8 23.2 742.4 23.0Q743.0 22.7 743.7 22.7L743.7 22.7Q744.4 22.7 745.1 23.0Q745.7 23.4 746.1 24.0Q746.4 24.7 746.4 25.7L746.4 25.7L746.4 31.5L745.0 31.5L745.0 25.8Q745.0 24.8 744.5 24.4Q744.0 24.0 743.3 24.0L743.3 24.0Q742.7 24.0 742.3 24.2Q741.8 24.5 741.6 24.9Q741.4 25.3 741.4 25.9L741.4 25.9L741.4 31.5L740.0 31.5L740.0 25.6Q740.0 24.9 739.5 24.4Q739 24.0 738.3 24.0L738.3 24.0Q737.7 24.0 737.3 24.2Q736.8 24.5 736.6 24.9Q736.3 25.4 736.3 26.1L736.3 26.1L736.3 31.5ZM752.3 31.7L752.3 31.7Q751.1 31.7 750.2 31.1Q749.4 30.6 748.9 29.6Q748.4 28.6 748.4 27.2L748.4 27.2Q748.4 25.9 748.9 24.9Q749.4 23.9 750.2 23.3Q751.1 22.8 752.3 22.8L752.3 22.8Q753.5 22.8 754.4 23.3Q755.3 23.9 755.8 24.9Q756.3 25.9 756.3 27.2L756.3 27.2Q756.3 28.6 755.8 29.6Q755.3 30.6 754.4 31.1Q753.5 31.7 752.3 31.7ZM752.3 30.4L752.3 30.4Q753.2 30.4 753.7 30.0Q754.3 29.6 754.6 28.8Q754.9 28.1 754.9 27.2L754.9 27.2Q754.9 26.4 754.6 25.6Q754.3 24.9 753.7 24.4Q753.2 24.0 752.3 24.0L752.3 24.0Q751.5 24.0 750.9 24.4Q750.3 24.9 750.1 25.6Q749.8 26.3 749.8 27.2L749.8 27.2Q749.8 28.1 750.1 28.8Q750.3 29.6 750.9 30.0Q751.5 30.4 752.3 30.4ZM759.6 31.5L758.2 31.5L758.2 22.9L759.5 22.9L759.5 24.2L759.6 24.2Q759.9 23.5 760.5 23.1Q761.0 22.8 761.8 22.8L761.8 22.8Q762.0 22.8 762.2 22.8Q762.4 22.8 762.5 22.8L762.5 22.8L762.5 24.2Q762.4 24.2 762.2 24.1Q761.9 24.1 761.7 24.1L761.7 24.1Q761.1 24.1 760.6 24.3Q760.1 24.6 759.9 25.0Q759.6 25.5 759.6 26.1L759.6 26.1L759.6 31.5ZM767.6 31.7L767.6 31.7Q766.4 31.7 765.5 31.1Q764.6 30.6 764.1 29.6Q763.6 28.6 763.6 27.2L763.6 27.2Q763.6 25.9 764.1 24.9Q764.6 23.9 765.4 23.3Q766.3 22.8 767.5 22.8L767.5 22.8Q768.2 22.8 768.9 23.0Q769.6 23.2 770.1 23.8Q770.7 24.3 771.0 25.1Q771.3 26.0 771.3 27.1L771.3 27.1L771.3 27.6L764.5 27.6L764.5 26.5L770.5 26.5L769.9 26.9Q769.9 26.0 769.6 25.4Q769.3 24.7 768.8 24.4Q768.3 24.0 767.5 24.0L767.5 24.0Q766.7 24.0 766.2 24.4Q765.6 24.7 765.3 25.4Q765.0 26.0 765.0 26.7L765.0 26.7L765.0 27.5Q765.0 28.4 765.3 29.1Q765.7 29.7 766.3 30.1Q766.9 30.4 767.6 30.4L767.6 30.4Q768.2 30.4 768.6 30.3Q769.0 30.1 769.3 29.8Q769.6 29.5 769.8 29.1L769.8 29.1L771.1 29.4Q771.0 30.1 770.5 30.6Q770.0 31.1 769.3 31.4Q768.5 31.7 767.6 31.7Z "/></svg>